<?xml version="1.0" encoding="UTF-8" standalone="no"?>
<svg width="298px" height="164px" viewBox="0 0 298 164" version="1.1" xmlns="http://www.w3.org/2000/svg" xmlns:xlink="http://www.w3.org/1999/xlink" xmlns:sketch="http://www.bohemiancoding.com/sketch/ns">
    <!-- Generator: Sketch 3.4.3 (16044) - http://www.bohemiancoding.com/sketch -->
    <title>logo</title>
    <desc>Created with Sketch.</desc>
    <defs>
        <linearGradient x1="100%" y1="100%" x2="0%" y2="0%" id="linearGradient-1">
            <stop stop-color="#6058A6" offset="0%"></stop>
            <stop stop-color="#ED3895" offset="100%"></stop>
        </linearGradient>
        <linearGradient x1="64.1906753%" y1="50%" x2="100%" y2="100%" id="linearGradient-2">
            <stop stop-color="#000000" stop-opacity="0" offset="0%"></stop>
            <stop stop-color="#24252D" stop-opacity="0.854817708" offset="100%"></stop>
        </linearGradient>
        <path id="path-3" d="M7.60869758,34.6408081 C11.6164754,34.5045404 15.9168681,34.5700537 21.1578083,34.8923791 C28.8284965,35.374557 37.1157659,36.3389126 45.8576334,37.9269548 C69.5751087,42.2403499 93.0417714,50.3246901 114.94608,63.1128846 C122.46001,67.4996546 129.691776,72.3895667 136.5839,77.7852414 L146.036403,69.1741744 C137.861477,62.5389882 129.234566,56.5956224 120.239273,51.3335948 C97.1827934,37.8797852 72.5299958,29.3866421 47.6708001,24.8819482 C31.5769856,21.9443322 17.9573338,21.0926594 8.15735035,21.3678152 C7.63221127,21.3914 7.26121749,21.4149848 7.03391849,21.4149848 L1.24432548,21.7373102 L1.79297824,34.9395487 L7.60869758,34.6408081"></path>
        <linearGradient x1="0%" y1="-49.7001377%" x2="100%" y2="50%" id="linearGradient-4">
            <stop stop-color="#6058A6" offset="0%"></stop>
            <stop stop-color="#ED3895" offset="100%"></stop>
        </linearGradient>
        <linearGradient x1="27.1039279%" y1="37.5540029%" x2="4.37215083%" y2="6.53743258%" id="linearGradient-5">
            <stop stop-color="#000000" stop-opacity="0" offset="0%"></stop>
            <stop stop-color="#24252D" stop-opacity="0.8" offset="99.1669324%"></stop>
        </linearGradient>
        <path id="path-6" d="M271.821582,110.400379 L263.638818,118.605263 L276.302246,131.288636 C276.179453,131.278154 276.074947,131.275534 275.949541,131.265052 C267.986238,130.66495 259.377615,129.425438 250.288267,127.449558 C225.523126,122.006713 200.977447,111.83905 178.088176,95.7856734 C172.045157,91.5404121 166.185023,86.9256559 160.505161,81.9414046 L151.047432,90.3009007 C157.780185,96.4067394 164.761139,101.985851 171.99813,107.040857 C196.172816,123.982594 222.016974,134.70843 248.091043,140.42381 C257.661115,142.514994 266.750463,143.820019 275.147463,144.46729 C275.377374,144.485634 275.588998,144.498737 275.813684,144.51446 L263.638818,156.705173 L271.821582,164.910058 L298.966831,137.659149 L271.821582,110.400379"></path>
        <linearGradient x1="0%" y1="100%" x2="100%" y2="0%" id="linearGradient-7">
            <stop stop-color="#6058A6" offset="0%"></stop>
            <stop stop-color="#ED3895" offset="100%"></stop>
        </linearGradient>
        <path id="path-8" d="M271.821582,0.987940438 L263.638818,9.19282508 L276.054046,21.6272478 C268.370295,22.0832203 259.471669,23.0895045 249.601145,24.8819482 C224.741949,29.3866421 200.110053,37.8797852 177.032672,51.3335948 C164.233387,58.8178332 152.19699,67.6804713 141.114204,78.0158482 C134.088836,84.5566952 126.783917,90.4607531 119.183769,95.7856734 C96.2944985,111.83905 71.7488187,122.006713 46.9836779,127.449558 C37.8943303,129.425438 29.2857072,130.66495 21.3459178,131.265052 C15.9638954,131.676475 11.5929617,131.770814 8.41077567,131.676475 C8.01888084,131.65289 7.76545551,131.65289 7.65572496,131.629306 L1.85829405,131.288636 L1.24432548,144.490875 L7.03391849,144.855129 C7.2377038,144.855129 7.58518389,144.878714 8.08942191,144.878714 C11.6164754,144.996638 16.350565,144.902298 22.119257,144.46729 C30.5214822,143.820019 39.6108297,142.514994 49.1809016,140.42381 C75.2549712,134.70843 101.099129,123.982594 125.273815,107.040857 C133.307659,101.409334 141.043663,95.167228 148.463539,88.2542654 C158.901005,78.5216108 170.234603,70.1621148 182.341541,63.1128846 C204.230174,50.3220696 227.72035,42.2403499 251.429987,37.9269548 C260.111764,36.3467742 268.357232,35.3876596 276.012244,34.9028613 L263.638818,47.292735 L271.821582,55.4976196 L298.966831,28.2440903 L271.821582,0.987940438"></path>
    </defs>
    <g id="Page-1" stroke="none" stroke-width="1" fill="none" fill-rule="evenodd" sketch:type="MSPage">
        <g id="Desktop-HD" sketch:type="MSArtboardGroup" transform="translate(-159.000000, -100.000000)">
            <g id="HomeScreens" sketch:type="MSLayerGroup" transform="translate(158.000000, 99.000000)">
                <g id="logo">
                    <g>
                        <g id="Clip-2">
                            <use fill="url(#linearGradient-1)" sketch:type="MSShapeGroup" xlink:href="#path-3"></use>
                            <use fill="url(#linearGradient-2)" xlink:href="#path-3"></use>
                        </g>
                        <g id="Clip-8">
                            <use fill="url(#linearGradient-4)" sketch:type="MSShapeGroup" xlink:href="#path-6"></use>
                            <use fill="url(#linearGradient-5)" xlink:href="#path-6"></use>
                        </g>
                        <mask id="mask-9" sketch:name="Clip 5" fill="white">
                            <use xlink:href="#path-8"></use>
                        </mask>
                        <use id="Clip-5" fill="url(#linearGradient-7)" sketch:type="MSShapeGroup" xlink:href="#path-8"></use>
                    </g>
                </g>
            </g>
        </g>
    </g>
</svg>