<?xml version="1.0" encoding="UTF-8" standalone="no"?>
<svg width="1287px" height="610px" viewBox="0 0 1287 610" version="1.1" xmlns="http://www.w3.org/2000/svg" xmlns:xlink="http://www.w3.org/1999/xlink" xmlns:sketch="http://www.bohemiancoding.com/sketch/ns">
    <!-- Generator: Sketch 3.4.3 (16044) - http://www.bohemiancoding.com/sketch -->
    <title>experiencmap</title>
    <desc>Created with Sketch.</desc>
    <defs></defs>
    <g id="Page-1" stroke="none" stroke-width="1" fill="none" fill-rule="evenodd" sketch:type="MSPage">
        <g id="Desktop-HD" sketch:type="MSArtboardGroup" transform="translate(-122.000000, -124.000000)">
            <g id="experiencmap" sketch:type="MSLayerGroup" transform="translate(120.000000, 117.000000)">
                <path d="M69.7942177,321.09 C73.5712177,316.907 75.5792177,310.082 75.5872177,305.457 C75.5982177,298.364 69.7472177,291 62.2902177,291 C54.8332177,291 48.9812177,298.367 48.9932177,305.457 C49.0012177,310.102 51.0282177,316.965 54.8372177,321.145 C46.1262177,323.774 38.5122177,330.739 37.0552177,339.926 C36.4542177,343.731 40.8952177,346.258 43.7662177,347.551 C49.4032177,350.09 55.8452177,350.953 61.9812177,350.996 C68.1922177,351.043 74.6842177,350.239 80.4422177,347.809 C83.4662177,346.535 88.3952177,343.949 87.7592177,339.926 C86.2902177,330.672 78.5832177,323.676 69.7942177,321.09 Z" id="Page-1" fill="#FFFFFF" sketch:type="MSShapeGroup"></path>
                <path d="M308.407937,352.459695 C298.45518,352.627468 292,352.866178 292,353.175824 L292,356.358505 C292,358.090418 295.892747,359.934066 298.131077,359.934066 L411.66233,359.934066 C413.90967,359.934066 415,358.090418 415,356.358505 L415,353.175824 C415,352.910222 410.250571,352.696811 402.618262,352.535592 C402.758252,352.180026 402.835165,351.792898 402.835165,351.388044 L402.835165,294.139429 C402.835165,292.407516 401.427648,291 399.695736,291 L311.359209,291 C309.627297,291 308.21978,292.407516 308.21978,294.139429 L308.21978,351.388044 C308.21978,351.76427 308.2862,352.125188 308.407937,352.459695 Z M396.076923,347.769231 L313.626374,347.769231 L313.626374,297.758242 L396.076923,297.758242 L396.076923,347.769231 Z" id="Fill-1" fill="#FFFFFF" sketch:type="MSShapeGroup"></path>
                <g id="Page-1" transform="translate(620.000000, 275.000000)" fill="#FFFFFF" sketch:type="MSShapeGroup">
                    <path d="M39.5896667,0.357142857 L7.9059697,0.357142857 C3.81127273,0.357142857 0.495636364,3.68285714 0.495636364,7.79 L0.495636364,91.4228571 C0.495636364,95.53 3.81127273,98.8557143 7.9059697,98.8557143 L39.5896667,98.8557143 C43.6843636,98.8557143 47,95.53 47,91.4228571 L47,7.79 C47,3.68285714 43.6843636,0.357142857 39.5896667,0.357142857 L39.5896667,0.357142857 Z M43.5390909,84.9828571 L4.01066667,84.9828571 L4.01066667,14.6042857 L43.5390909,14.6042857 L43.5390909,84.9828571 Z" id="Fill-19"></path>
                    <path d="M28.100303,91.6742857 C28.100303,97.5385714 19.3326667,97.5385714 19.3326667,91.6742857 C19.3326667,85.8085714 28.100303,85.8085714 28.100303,91.6742857" id="Fill-20"></path>
                    <path d="M20.2840606,9.83857143 L27.1389394,9.83857143 C27.6331515,9.83857143 28.0347879,9.43571429 28.0347879,8.94 C28.0347879,8.44285714 27.6331515,8.04142857 27.1389394,8.04142857 L20.2840606,8.04142857 C19.7898485,8.04142857 19.3882121,8.44285714 19.3882121,8.94 C19.3882121,9.43142857 19.7941212,9.83857143 20.2840606,9.83857143 L20.2840606,9.83857143 Z" id="Fill-21"></path>
                    <path d="M24.5183333,5.25142857 C24.5183333,6.32857143 22.9103636,6.32857143 22.9103636,5.25142857 C22.9103636,4.18 24.5183333,4.18 24.5183333,5.25142857" id="Fill-22"></path>
                </g>
                <g id="Page-1-Copy" transform="translate(1166.000000, 275.000000)" fill="#FFFFFF" sketch:type="MSShapeGroup">
                    <path d="M39.5896667,0.357142857 L7.9059697,0.357142857 C3.81127273,0.357142857 0.495636364,3.68285714 0.495636364,7.79 L0.495636364,91.4228571 C0.495636364,95.53 3.81127273,98.8557143 7.9059697,98.8557143 L39.5896667,98.8557143 C43.6843636,98.8557143 47,95.53 47,91.4228571 L47,7.79 C47,3.68285714 43.6843636,0.357142857 39.5896667,0.357142857 L39.5896667,0.357142857 Z M43.5390909,84.9828571 L4.01066667,84.9828571 L4.01066667,14.6042857 L43.5390909,14.6042857 L43.5390909,84.9828571 Z" id="Fill-19"></path>
                    <path d="M28.100303,91.6742857 C28.100303,97.5385714 19.3326667,97.5385714 19.3326667,91.6742857 C19.3326667,85.8085714 28.100303,85.8085714 28.100303,91.6742857" id="Fill-20"></path>
                    <path d="M20.2840606,9.83857143 L27.1389394,9.83857143 C27.6331515,9.83857143 28.0347879,9.43571429 28.0347879,8.94 C28.0347879,8.44285714 27.6331515,8.04142857 27.1389394,8.04142857 L20.2840606,8.04142857 C19.7898485,8.04142857 19.3882121,8.44285714 19.3882121,8.94 C19.3882121,9.43142857 19.7941212,9.83857143 20.2840606,9.83857143 L20.2840606,9.83857143 Z" id="Fill-21"></path>
                    <path d="M24.5183333,5.25142857 C24.5183333,6.32857143 22.9103636,6.32857143 22.9103636,5.25142857 C22.9103636,4.18 24.5183333,4.18 24.5183333,5.25142857" id="Fill-22"></path>
                </g>
                <path d="M956.95852,337.65296 L956.95852,328.301933 L924.2828,314.310413 L924.2828,300.973973 C924.2828,295.738827 920.033707,282 914.79856,282 C909.55792,282 905.31432,295.733333 905.31432,300.973973 L905.31432,314.25136 L872,328.301933 L872,337.65296 L905.308827,331.220267 L905.308827,349.599587 L891.01792,360.1358 L891.01792,369.485453 L914.648867,361.21936 L937.930987,369.485453 L937.930987,360.1358 L924.271813,349.915453 L924.271813,331.24636 L956.95852,337.65296 Z" id="Page-1" fill="#FFFFFF" sketch:type="MSShapeGroup"></path>
                <path d="M197.25,107.5 L197.25,534.799652" id="Line" stroke="#979797" stroke-width="0.5" stroke-linecap="square" sketch:type="MSShapeGroup"></path>
                <path d="M1066.25,107.5 L1066.25,534.799652" id="Line-Copy" stroke="#979797" stroke-width="0.5" stroke-linecap="square" sketch:type="MSShapeGroup"></path>
                <text id="NEW" sketch:type="MSTextLayer" font-family="Gotham" font-size="36" font-weight="normal" sketch:alignment="middle" line-spacing="40" fill="#FFFFFF">
                    <tspan x="15.794" y="402">NEW</tspan>
                    <tspan x="0.224" y="444.988006">USERS</tspan>
                </text>
                <text id="VIRGIN-MOBILE" sketch:type="MSTextLayer" font-family="Gotham" font-size="36" font-weight="normal" sketch:alignment="middle" line-spacing="40" fill="#FFFFFF">
                    <tspan x="209.918" y="402">VIRGIN MOBILE</tspan>
                </text>
                <text id="APP" sketch:type="MSTextLayer" font-family="Gotham" font-size="36" font-weight="normal" sketch:alignment="middle" line-spacing="40" fill="#FFFFFF">
                    <tspan x="605.232" y="402">APP</tspan>
                </text>
                <text id="APP-Copy" sketch:type="MSTextLayer" font-family="Gotham" font-size="36" font-weight="normal" sketch:alignment="middle" line-spacing="40" fill="#FFFFFF">
                    <tspan x="1151.232" y="402">APP</tspan>
                </text>
                <text id="ON-AIR" sketch:type="MSTextLayer" font-family="Gotham" font-size="36" font-weight="normal" sketch:alignment="middle" line-spacing="40" fill="#FFFFFF">
                    <tspan x="847.108" y="402">ON AIR</tspan>
                </text>
                <path d="M54,485 C54,485 122.166626,545 204.083313,545 C286,545 354.16662,485 354.16662,485" id="Path-153" stroke="#FFFFFF" stroke-width="3" sketch:type="MSShapeGroup"></path>
                <path d="M56,484 C56,484 138.500946,615.5 352.500946,615.5 C566.500946,615.5 649.001897,484 649.001897,484" id="Path-154" stroke="#FFFFFF" stroke-width="3" sketch:type="MSShapeGroup"></path>
                <text id="visit" sketch:type="MSTextLayer" font-family="Gotham" font-size="32" font-weight="normal" sketch:alignment="middle" line-spacing="40" fill="#9B9B9B">
                    <tspan x="320.26" y="471">visit</tspan>
                </text>
                <text id="visit-copy" sketch:type="MSTextLayer" font-family="Gotham" font-size="32" font-weight="normal" sketch:alignment="middle" line-spacing="40" fill="#9B9B9B">
                    <tspan x="617.26" y="470">visit</tspan>
                </text>
                <text id="log-in" sketch:type="MSTextLayer" font-family="Gotham" font-size="32" font-weight="normal" sketch:alignment="middle" line-spacing="40" fill="#9B9B9B">
                    <tspan x="868.468" y="246">log in</tspan>
                </text>
                <text id="FIRST-RUN-/-ACCOUNT-" sketch:type="MSTextLayer" font-family="Gotham" font-size="32" font-weight="normal" sketch:alignment="middle" line-spacing="40" fill="#9B9B9B">
                    <tspan x="367.06" y="29">FIRST RUN / ACCOUNT SET UP</tspan>
                </text>
                <text id="KEEP-USING" sketch:type="MSTextLayer" font-family="Gotham" font-size="32" font-weight="normal" sketch:alignment="middle" line-spacing="40" fill="#9B9B9B">
                    <tspan x="1089.344" y="29">KEEP USING</tspan>
                </text>
                <path d="M649,217 C649,217 686.293243,154 781.646622,154 C877,154 914.293234,217 914.293234,217" id="Path-155" stroke="#FFFFFF" stroke-width="3" sketch:type="MSShapeGroup"></path>
                <path d="M357,215 C357,215 428.514282,88.5 637.007141,88.5 C845.5,88.5 917.014286,215 917.014286,215" id="Path-156" stroke="#FFFFFF" stroke-width="3" sketch:type="MSShapeGroup"></path>
            </g>
        </g>
    </g>
</svg>