<?xml version="1.0" encoding="UTF-8" standalone="no"?>
<svg width="1768px" height="946px" viewBox="0 0 1768 946" version="1.1" xmlns="http://www.w3.org/2000/svg" xmlns:xlink="http://www.w3.org/1999/xlink" xmlns:sketch="http://www.bohemiancoding.com/sketch/ns">
    <!-- Generator: Sketch 3.4.3 (16044) - http://www.bohemiancoding.com/sketch -->
    <title>Title</title>
    <desc>Created with Sketch.</desc>
    <defs></defs>
    <g id="Page-1" stroke="none" stroke-width="1" fill="none" fill-rule="evenodd" sketch:type="MSPage">
        <g id="Desktop-HD" sketch:type="MSArtboardGroup" transform="translate(-623.000000, -495.000000)" fill="#CFD0D1">
            <g id="HomeScreens" sketch:type="MSLayerGroup" transform="translate(158.000000, 99.000000)">
                <g id="Title" transform="translate(465.000000, 396.000000)" sketch:type="MSShapeGroup">
                    <path d="M43,53 L43,178 L15,178 L15,0.5 L37,0.5 L138.5,128.5 L138.5,0.75 L166.75,0.75 L166.75,178 L143.5,178 L43,53 Z M348.5,153.25 L348.5,178 L226.75,178 L226.75,0.5 L346.25,0.5 L346.25,25.25 L254.75,25.25 L254.75,75.75 L334,75.75 L334,99 L254.75,99 L254.75,153.25 L348.5,153.25 Z M461.5,1.25 L487.75,1.25 L509.5,61.5 L531.5,1.25 L558,1.25 L527.5,80.25 L554.25,145.5 L609.5,0.5 L640,0.5 L567,178 L542.75,178 L509.75,98.5 L476.5,178 L452.5,178 L379.5,0.5 L409.75,0.5 L465.5,145.5 L491.75,80.25 L461.5,1.25 Z" id="NEW"></path>
                    <path d="M110.04,471 L110.04,377.72 L68.6,449.88 L62.04,449.88 L20.44,377.72 L20.44,471 L9.4,471 L9.4,357.4 L20.76,357.4 L65.24,435.16 L109.72,357.4 L121.08,357.4 L121.08,471 L110.04,471 Z M208.6,461.72 C215.746703,461.72 221.69331,460.360014 226.44,457.64 C231.186691,454.919986 234.973319,451.346689 237.8,446.92 C240.626681,442.493311 242.599995,437.453362 243.72,431.8 C244.840006,426.146638 245.4,420.440029 245.4,414.68 L245.4,357.4 L256.6,357.4 L256.6,414.68 C256.6,422.360038 255.746675,429.639966 254.04,436.52 C252.333325,443.400034 249.586686,449.453307 245.8,454.68 C242.013315,459.906693 237.080031,464.066651 231,467.16 C224.91997,470.253349 217.506711,471.8 208.76,471.8 C199.693288,471.8 192.120031,470.17335 186.04,466.92 C179.95997,463.66665 175.053352,459.37336 171.32,454.04 C167.586648,448.70664 164.920008,442.626701 163.32,435.8 C161.719992,428.973299 160.92,421.93337 160.92,414.68 L160.92,357.4 L171.96,357.4 L171.96,414.68 C171.96,420.653363 172.546661,426.466638 173.72,432.12 C174.893339,437.773362 176.893319,442.786645 179.72,447.16 C182.546681,451.533355 186.306643,455.05332 191,457.72 C195.693357,460.38668 201.559965,461.72 208.6,461.72 L208.6,461.72 Z M363,378.68 C359.799984,375.053315 355.506694,372.120011 350.12,369.88 C344.733307,367.639989 338.680034,366.52 331.96,366.52 C321.826616,366.52 314.46669,368.413314 309.88,372.2 C305.293311,375.986686 303,381.133301 303,387.64 C303,391.05335 303.613328,393.853322 304.84,396.04 C306.066673,398.226678 307.986654,400.119992 310.6,401.72 C313.213347,403.320008 316.51998,404.706661 320.52,405.88 C324.52002,407.053339 329.239973,408.226661 334.68,409.4 C340.760031,410.680006 346.199976,412.093326 351,413.64 C355.800024,415.186674 359.90665,417.159988 363.32,419.56 C366.733351,421.960012 369.346658,424.893316 371.16,428.36 C372.973343,431.826684 373.88,436.119974 373.88,441.24 C373.88,446.466693 372.866677,450.999981 370.84,454.84 C368.813324,458.680019 365.986685,461.879987 362.36,464.44 C358.733316,467.000013 354.413359,468.893327 349.4,470.12 C344.386642,471.346673 338.946696,471.96 333.08,471.96 C315.266578,471.96 300.06673,466.466722 287.48,455.48 L292.92,446.36 C297.080021,450.733355 302.679965,454.439985 309.72,457.48 C316.760036,460.520015 324.599957,462.04 333.24,462.04 C342.306712,462.04 349.399975,460.41335 354.52,457.16 C359.640026,453.90665 362.2,448.973366 362.2,442.36 C362.2,438.839982 361.480008,435.880012 360.04,433.48 C358.599993,431.079988 356.440015,429.000009 353.56,427.24 C350.679986,425.479991 347.080022,423.960006 342.76,422.68 C338.439979,421.399994 333.453362,420.120006 327.8,418.84 C321.826637,417.453326 316.600023,416.013341 312.12,414.52 C307.639978,413.026659 303.880016,411.160011 300.84,408.92 C297.799985,406.679989 295.506675,403.986682 293.96,400.84 C292.413326,397.693318 291.64,393.82669 291.64,389.24 C291.64,384.013307 292.626657,379.346687 294.6,375.24 C296.573344,371.133313 299.346649,367.720014 302.92,365 C306.493352,362.279986 310.759976,360.200007 315.72,358.76 C320.680025,357.319993 326.146637,356.6 332.12,356.6 C339.586704,356.6 346.279971,357.746655 352.2,360.04 C358.12003,362.333345 363.479976,365.559979 368.28,369.72 L363,378.68 Z M407.000001,471 L407.000001,357.56 L418.040001,357.56 L418.040001,471 L407.000001,471 Z M452.280001,413.4 C452.280001,406.573299 453.479989,399.773367 455.880001,393 C458.280013,386.226633 461.773311,380.17336 466.360001,374.84 C470.94669,369.50664 476.599967,365.160017 483.320001,361.8 C490.040034,358.439983 497.666625,356.76 506.200001,356.76 C516.333385,356.76 524.973298,359.05331 532.120001,363.64 C539.266703,368.22669 544.599983,374.199963 548.120001,381.56 L539.160001,387 C537.346658,383.266648 535.160014,380.120013 532.600001,377.56 C530.039988,374.999987 527.266682,372.920008 524.280001,371.32 C521.293319,369.719992 518.200017,368.573337 515.000001,367.88 C511.799985,367.186663 508.65335,366.84 505.560001,366.84 C498.7333,366.84 492.706694,368.226653 487.480001,371 C482.253308,373.773347 477.853352,377.399978 474.280001,381.88 C470.70665,386.360022 468.013343,391.399972 466.200001,397 C464.386658,402.600028 463.480001,408.279971 463.480001,414.04 C463.480001,420.333365 464.573323,426.359971 466.760001,432.12 C468.946678,437.880029 471.933315,442.973311 475.720001,447.4 C479.506686,451.826689 483.986642,455.346654 489.160001,457.96 C494.33336,460.573346 499.95997,461.88 506.040001,461.88 C509.240017,461.88 512.519984,461.480004 515.880001,460.68 C519.240018,459.879996 522.493318,458.600009 525.640001,456.84 C528.786683,455.079991 531.693321,452.893346 534.360001,450.28 C537.026681,447.666654 539.266658,444.493352 541.080001,440.76 L550.360001,445.56 C548.546658,449.826688 545.986684,453.58665 542.680001,456.84 C539.373318,460.09335 535.693354,462.839989 531.640001,465.08 C527.586647,467.320011 523.293357,469.026661 518.760001,470.2 C514.226645,471.373339 509.773356,471.96 505.400001,471.96 C497.613295,471.96 490.4667,470.25335 483.960001,466.84 C477.453302,463.42665 471.853358,458.973361 467.160001,453.48 C462.466644,447.986639 458.813347,441.746702 456.200001,434.76 C453.586654,427.773298 452.280001,420.65337 452.280001,413.4 L452.280001,413.4 Z M76.12,538.68 C72.919984,535.053315 68.6266936,532.120011 63.24,529.88 C57.8533064,527.639989 51.8000336,526.52 45.08,526.52 C34.946616,526.52 27.5866896,528.413314 23,532.2 C18.4133104,535.986686 16.12,541.133301 16.12,547.64 C16.12,551.05335 16.7333272,553.853322 17.96,556.04 C19.1866728,558.226678 21.1066536,560.119992 23.72,561.72 C26.3333464,563.320008 29.63998,564.706661 33.64,565.88 C37.64002,567.053339 42.3599728,568.226661 47.8,569.4 C53.8800304,570.680006 59.319976,572.093326 64.12,573.64 C68.920024,575.186674 73.0266496,577.159988 76.44,579.56 C79.8533504,581.960012 82.4666576,584.893316 84.28,588.36 C86.0933424,591.826684 87,596.119974 87,601.24 C87,606.466693 85.9866768,610.999981 83.96,614.84 C81.9333232,618.680019 79.1066848,621.879987 75.48,624.44 C71.8533152,627.000013 67.5333584,628.893327 62.52,630.12 C57.5066416,631.346673 52.066696,631.96 46.2,631.96 C28.3865776,631.96 13.1867296,626.466722 0.6,615.48 L6.04,606.36 C10.2000208,610.733355 15.7999648,614.439985 22.84,617.48 C29.8800352,620.520015 37.7199568,622.04 46.36,622.04 C55.426712,622.04 62.5199744,620.41335 67.64,617.16 C72.7600256,613.90665 75.32,608.973366 75.32,602.36 C75.32,598.839982 74.6000072,595.880012 73.16,593.48 C71.7199928,591.079988 69.5600144,589.000009 66.68,587.24 C63.7999856,585.479991 60.2000216,583.960006 55.88,582.68 C51.5599784,581.399994 46.5733616,580.120006 40.92,578.84 C34.9466368,577.453326 29.7200224,576.013341 25.24,574.52 C20.7599776,573.026659 17.0000152,571.160011 13.96,568.92 C10.9199848,566.679989 8.6266744,563.986682 7.08,560.84 C5.5333256,557.693318 4.76,553.82669 4.76,549.24 C4.76,544.013307 5.7466568,539.346687 7.72,535.24 C9.6933432,531.133313 12.4666488,527.720014 16.04,525 C19.6133512,522.279986 23.8799752,520.200007 28.84,518.76 C33.8000248,517.319993 39.2666368,516.6 45.24,516.6 C52.706704,516.6 59.3999704,517.746655 65.32,520.04 C71.2400296,522.333345 76.599976,525.559979 81.4,529.72 L76.12,538.68 Z M196.44,621.08 L196.44,631 L120.12,631 L120.12,517.4 L195,517.4 L195,527.32 L131.16,527.32 L131.16,568.28 L186.84,568.28 L186.84,577.72 L131.16,577.72 L131.16,621.08 L196.44,621.08 Z M231,631 L231,517.4 L278.84,517.4 C283.746692,517.4 288.27998,518.43999 292.44,520.52 C296.600021,522.60001 300.173319,525.319983 303.16,528.68 C306.146682,532.040017 308.466659,535.853312 310.12,540.12 C311.773342,544.386688 312.6,548.706645 312.6,553.08 C312.6,557.240021 311.986673,561.213314 310.76,565 C309.533328,568.786686 307.800012,572.199985 305.56,575.24 C303.319989,578.280015 300.653349,580.83999 297.56,582.92 C294.466652,585.00001 291.00002,586.41333 287.16,587.16 L315.16,631 L302.52,631 L275.64,589.08 L242.04,589.08 L242.04,631 L231,631 Z M242.04,579.16 L279.32,579.16 C282.626684,579.16 285.639987,578.440007 288.36,577 C291.080014,575.559993 293.399991,573.613346 295.32,571.16 C297.24001,568.706654 298.733328,565.933349 299.8,562.84 C300.866672,559.746651 301.4,556.49335 301.4,553.08 C301.4,549.66665 300.786673,546.386682 299.56,543.24 C298.333328,540.093318 296.680011,537.346678 294.6,535 C292.51999,532.653322 290.066681,530.786674 287.24,529.4 C284.41332,528.013326 281.453349,527.32 278.36,527.32 L242.04,527.32 L242.04,579.16 Z M345.400001,517.4 L386.040001,617.08 L426.360001,517.4 L438.200001,517.4 L390.840001,631 L381.080001,631 L333.720001,517.4 L345.400001,517.4 Z M467.320001,631 L467.320001,517.56 L478.360001,517.56 L478.360001,631 L467.320001,631 Z M512.600001,573.4 C512.600001,566.573299 513.799989,559.773367 516.200001,553 C518.600013,546.226633 522.093311,540.17336 526.680001,534.84 C531.266691,529.50664 536.919967,525.160017 543.640001,521.8 C550.360035,518.439983 557.986625,516.76 566.520001,516.76 C576.653385,516.76 585.293299,519.05331 592.440001,523.64 C599.586703,528.22669 604.919983,534.199963 608.440001,541.56 L599.480001,547 C597.666659,543.266648 595.480014,540.120013 592.920001,537.56 C590.359988,534.999987 587.586683,532.920008 584.600001,531.32 C581.613319,529.719992 578.520017,528.573337 575.320001,527.88 C572.119985,527.186663 568.97335,526.84 565.880001,526.84 C559.0533,526.84 553.026694,528.226653 547.800001,531 C542.573308,533.773347 538.173352,537.399978 534.600001,541.88 C531.02665,546.360022 528.333343,551.399972 526.520001,557 C524.706659,562.600028 523.800001,568.279971 523.800001,574.04 C523.800001,580.333365 524.893323,586.359971 527.080001,592.12 C529.266679,597.880029 532.253315,602.973311 536.040001,607.4 C539.826687,611.826689 544.306642,615.346654 549.480001,617.96 C554.65336,620.573346 560.279971,621.88 566.360001,621.88 C569.560017,621.88 572.839984,621.480004 576.200001,620.68 C579.560018,619.879996 582.813319,618.600009 585.960001,616.84 C589.106683,615.079991 592.013321,612.893346 594.680001,610.28 C597.346681,607.666654 599.586659,604.493352 601.400001,600.76 L610.680001,605.56 C608.866659,609.826688 606.306684,613.58665 603.000001,616.84 C599.693318,620.09335 596.013355,622.839989 591.960001,625.08 C587.906647,627.320011 583.613357,629.026661 579.080001,630.2 C574.546645,631.373339 570.093356,631.96 565.720001,631.96 C557.933295,631.96 550.7867,630.25335 544.280001,626.84 C537.773302,623.42665 532.173358,618.973361 527.480001,613.48 C522.786644,607.986639 519.133347,601.746702 516.520001,594.76 C513.906655,587.773298 512.600001,580.65337 512.600001,573.4 L512.600001,573.4 Z M719.320001,621.08 L719.320001,631 L643.000001,631 L643.000001,517.4 L717.880001,517.4 L717.880001,527.32 L654.040001,527.32 L654.040001,568.28 L709.720001,568.28 L709.720001,577.72 L654.040001,577.72 L654.040001,621.08 L719.320001,621.08 Z" id="MUSIC"></path>
                    <path d="M1013.28,790.88 L1013.28,848 L1018.72,848 L1018.72,790.88 L1013.28,790.88 Z M1031.56,790.88 L1031.56,795.52 L1051.4,795.52 L1051.4,848 L1056.84,848 L1056.84,795.52 L1076.76,795.52 L1076.76,790.88 L1031.56,790.88 Z M1092,790.88 L1092,810.32 L1097.04,810.32 L1097.04,790.88 L1092,790.88 Z M1120.92,829.2 L1115.48,829.2 C1115.32,832.720018 1115.78666,835.733321 1116.88,838.24 C1117.97334,840.746679 1119.53332,842.799992 1121.56,844.4 C1123.58668,846.000008 1126.03999,847.186663 1128.92,847.96 C1131.80001,848.733337 1134.91998,849.12 1138.28,849.12 C1141.64002,849.12 1144.51999,848.813336 1146.92,848.2 C1149.32001,847.586664 1151.33333,846.786672 1152.96,845.8 C1154.58667,844.813328 1155.86666,843.706673 1156.8,842.48 C1157.73334,841.253327 1158.45333,840.040006 1158.96,838.84 C1159.46667,837.639994 1159.78667,836.506672 1159.92,835.44 C1160.05333,834.373328 1160.12,833.520003 1160.12,832.88 C1160.12,830.533322 1159.73334,828.533342 1158.96,826.88 C1158.18666,825.226658 1157.12001,823.826672 1155.76,822.68 C1154.39999,821.533328 1152.82668,820.573337 1151.04,819.8 C1149.25332,819.026663 1147.34668,818.373336 1145.32,817.84 L1131.4,814.4 C1130.22666,814.133332 1129.12001,813.786669 1128.08,813.36 C1127.03999,812.933331 1126.12,812.373337 1125.32,811.68 C1124.52,810.986663 1123.89334,810.146672 1123.44,809.16 C1122.98666,808.173328 1122.76,807.01334 1122.76,805.68 C1122.76,803.546656 1123.16,801.760007 1123.96,800.32 C1124.76,798.879993 1125.81333,797.720004 1127.12,796.84 C1128.42667,795.959996 1129.94666,795.320002 1131.68,794.92 C1133.41334,794.519998 1135.21332,794.32 1137.08,794.32 C1139.10668,794.32 1141.03999,794.599997 1142.88,795.16 C1144.72001,795.720003 1146.34666,796.546661 1147.76,797.64 C1149.17334,798.733339 1150.32,800.093325 1151.2,801.72 C1152.08,803.346675 1152.57333,805.253322 1152.68,807.44 L1158.12,807.44 C1158.12,804.506652 1157.54667,801.933344 1156.4,799.72 C1155.25333,797.506656 1153.72001,795.653341 1151.8,794.16 C1149.87999,792.666659 1147.64001,791.54667 1145.08,790.8 C1142.51999,790.05333 1139.82668,789.68 1137,789.68 C1132.99998,789.68 1129.72001,790.253328 1127.16,791.4 C1124.59999,792.546672 1122.58667,793.946658 1121.12,795.6 C1119.65333,797.253342 1118.65334,799.013324 1118.12,800.88 C1117.58666,802.746676 1117.32,804.373326 1117.32,805.76 C1117.32,808.000011 1117.68,809.893326 1118.4,811.44 C1119.12,812.986674 1120.06666,814.293328 1121.24,815.36 C1122.41334,816.426672 1123.78666,817.279997 1125.36,817.92 C1126.93334,818.560003 1128.54666,819.093331 1130.2,819.52 L1142.92,822.64 C1144.25334,822.960002 1145.61333,823.373331 1147,823.88 C1148.38667,824.386669 1149.65333,825.039996 1150.8,825.84 C1151.94667,826.640004 1152.88,827.626661 1153.6,828.8 C1154.32,829.973339 1154.68,831.359992 1154.68,832.96 C1154.68,835.04001 1154.17334,836.813326 1153.16,838.28 C1152.14666,839.746674 1150.88001,840.946662 1149.36,841.88 C1147.83999,842.813338 1146.20001,843.493331 1144.44,843.92 C1142.67999,844.346669 1141.05334,844.56 1139.56,844.56 C1136.94665,844.56 1134.49334,844.306669 1132.2,843.8 C1129.90666,843.293331 1127.92001,842.453339 1126.24,841.28 C1124.55999,840.106661 1123.24,838.533343 1122.28,836.56 C1121.32,834.586657 1120.86667,832.133348 1120.92,829.2 L1120.92,829.2 Z M1220.92,824.48 L1220.92,848 L1226.36,848 L1226.36,824.48 L1248.92,790.88 L1242.44,790.88 L1223.72,819.84 L1204.92,790.88 L1198.52,790.88 L1220.92,824.48 Z M1263.28,819.44 C1263.28,816.293318 1263.69333,813.226682 1264.52,810.24 C1265.34667,807.253318 1266.62666,804.573345 1268.36,802.2 C1270.09334,799.826655 1272.31999,797.920007 1275.04,796.48 C1277.76001,795.039993 1281.01331,794.32 1284.8,794.32 C1288.58669,794.32 1291.82665,795.039993 1294.52,796.48 C1297.21335,797.920007 1299.42666,799.826655 1301.16,802.2 C1302.89334,804.573345 1304.17333,807.253318 1305,810.24 C1305.82667,813.226682 1306.24,816.293318 1306.24,819.44 C1306.24,822.533349 1305.82667,825.586652 1305,828.6 C1304.17333,831.613348 1302.89334,834.306655 1301.16,836.68 C1299.42666,839.053345 1297.21335,840.959993 1294.52,842.4 C1291.82665,843.840007 1288.58669,844.56 1284.8,844.56 C1281.01331,844.56 1277.76001,843.840007 1275.04,842.4 C1272.31999,840.959993 1270.09334,839.053345 1268.36,836.68 C1266.62666,834.306655 1265.34667,831.613348 1264.52,828.6 C1263.69333,825.586652 1263.28,822.533349 1263.28,819.44 L1263.28,819.44 Z M1257.84,819.44 C1257.84,823.386686 1258.39999,827.146649 1259.52,830.72 C1260.64001,834.293351 1262.31999,837.439986 1264.56,840.16 C1266.80001,842.880014 1269.61332,845.053325 1273,846.68 C1276.38668,848.306675 1280.31998,849.12 1284.8,849.12 C1289.28002,849.12 1293.19998,848.306675 1296.56,846.68 C1299.92002,845.053325 1302.71999,842.880014 1304.96,840.16 C1307.20001,837.439986 1308.87999,834.293351 1310,830.72 C1311.12001,827.146649 1311.68,823.386686 1311.68,819.44 C1311.68,815.493314 1311.12001,811.733351 1310,808.16 C1308.87999,804.586649 1307.20001,801.42668 1304.96,798.68 C1302.71999,795.93332 1299.92002,793.746675 1296.56,792.12 C1293.19998,790.493325 1289.28002,789.68 1284.8,789.68 C1280.31998,789.68 1276.38668,790.493325 1273,792.12 C1269.61332,793.746675 1266.80001,795.93332 1264.56,798.68 C1262.31999,801.42668 1260.64001,804.586649 1259.52,808.16 C1258.39999,811.733351 1257.84,815.493314 1257.84,819.44 L1257.84,819.44 Z M1326.6,790.88 L1326.6,827.44 C1326.6,830.373348 1327.01333,833.159987 1327.84,835.8 C1328.66667,838.440013 1329.97332,840.746657 1331.76,842.72 C1333.54668,844.693343 1335.83999,846.253328 1338.64,847.4 C1341.44001,848.546672 1344.81331,849.12 1348.76,849.12 C1352.76002,849.12 1356.15999,848.546672 1358.96,847.4 C1361.76001,846.253328 1364.05332,844.693343 1365.84,842.72 C1367.62668,840.746657 1368.93333,838.440013 1369.76,835.8 C1370.58667,833.159987 1371,830.373348 1371,827.44 L1371,790.88 L1365.56,790.88 L1365.56,826.24 C1365.56,829.546683 1365.18667,832.359988 1364.44,834.68 C1363.69333,837.000012 1362.60001,838.893326 1361.16,840.36 C1359.71999,841.826674 1357.96001,842.89333 1355.88,843.56 C1353.79999,844.22667 1351.42668,844.56 1348.76,844.56 C1346.14665,844.56 1343.80001,844.22667 1341.72,843.56 C1339.63999,842.89333 1337.88001,841.826674 1336.44,840.36 C1334.99999,838.893326 1333.90667,837.000012 1333.16,834.68 C1332.41333,832.359988 1332.04,829.546683 1332.04,826.24 L1332.04,790.88 L1326.6,790.88 Z M1394.4,818 L1394.4,795.52 L1414.72,795.52 C1418.88002,795.52 1421.97332,796.533323 1424,798.56 C1426.02668,800.586677 1427.04,803.359982 1427.04,806.88 C1427.04,808.640009 1426.70667,810.199993 1426.04,811.56 C1425.37333,812.920007 1424.48001,814.079995 1423.36,815.04 C1422.23999,816.000005 1420.93334,816.733331 1419.44,817.24 C1417.94666,817.746669 1416.37334,818 1414.72,818 L1394.4,818 Z M1388.96,790.88 L1388.96,848 L1394.4,848 L1394.4,822.64 L1415.04,822.64 C1417.60001,822.533333 1419.61333,822.959995 1421.08,823.92 C1422.54667,824.880005 1423.66666,826.146659 1424.44,827.72 C1425.21334,829.293341 1425.72,831.07999 1425.96,833.08 C1426.2,835.08001 1426.37333,837.093323 1426.48,839.12 C1426.53333,839.70667 1426.58667,840.399996 1426.64,841.2 C1426.69333,842.000004 1426.76,842.813329 1426.84,843.64 C1426.92,844.466671 1427.05333,845.266663 1427.24,846.04 C1427.42667,846.813337 1427.68,847.466664 1428,848 L1434,848 C1433.41333,847.306663 1432.94667,846.33334 1432.6,845.08 C1432.25333,843.82666 1432,842.49334 1431.84,841.08 C1431.68,839.66666 1431.57333,838.266674 1431.52,836.88 C1431.46667,835.493326 1431.41333,834.320005 1431.36,833.36 C1431.25333,831.653325 1431.02667,830.066674 1430.68,828.6 C1430.33333,827.133326 1429.77334,825.840006 1429,824.72 C1428.22666,823.599994 1427.22667,822.680004 1426,821.96 C1424.77333,821.239996 1423.22668,820.746668 1421.36,820.48 L1421.36,820.32 C1425.04002,819.57333 1427.81332,817.86668 1429.68,815.2 C1431.54668,812.53332 1432.48,809.386685 1432.48,805.76 C1432.48,803.199987 1432.01334,800.973343 1431.08,799.08 C1430.14666,797.186657 1428.89334,795.640006 1427.32,794.44 C1425.74666,793.239994 1423.90668,792.34667 1421.8,791.76 C1419.69332,791.17333 1417.46668,790.88 1415.12,790.88 L1388.96,790.88 Z M1486.4,790.88 L1505.36,840.96 L1525.04,790.88 L1533.04,790.88 L1533.04,848 L1527.6,848 L1527.6,798.64 L1527.44,798.64 L1507.92,848 L1502.8,848 L1484,798.64 L1483.84,798.64 L1483.84,848 L1478.4,848 L1478.4,790.88 L1486.4,790.88 Z M1550.68,790.88 L1550.68,827.44 C1550.68,830.373348 1551.09333,833.159987 1551.92,835.8 C1552.74667,838.440013 1554.05332,840.746657 1555.84,842.72 C1557.62668,844.693343 1559.91999,846.253328 1562.72,847.4 C1565.52001,848.546672 1568.89331,849.12 1572.84,849.12 C1576.84002,849.12 1580.23999,848.546672 1583.04,847.4 C1585.84001,846.253328 1588.13332,844.693343 1589.92,842.72 C1591.70668,840.746657 1593.01333,838.440013 1593.84,835.8 C1594.66667,833.159987 1595.08,830.373348 1595.08,827.44 L1595.08,790.88 L1589.64,790.88 L1589.64,826.24 C1589.64,829.546683 1589.26667,832.359988 1588.52,834.68 C1587.77333,837.000012 1586.68001,838.893326 1585.24,840.36 C1583.79999,841.826674 1582.04001,842.89333 1579.96,843.56 C1577.87999,844.22667 1575.50668,844.56 1572.84,844.56 C1570.22665,844.56 1567.88001,844.22667 1565.8,843.56 C1563.71999,842.89333 1561.96001,841.826674 1560.52,840.36 C1559.07999,838.893326 1557.98667,837.000012 1557.24,834.68 C1556.49333,832.359988 1556.12,829.546683 1556.12,826.24 L1556.12,790.88 L1550.68,790.88 Z M1615.6,829.2 L1610.16,829.2 C1610,832.720018 1610.46666,835.733321 1611.56,838.24 C1612.65334,840.746679 1614.21332,842.799992 1616.24,844.4 C1618.26668,846.000008 1620.71999,847.186663 1623.6,847.96 C1626.48001,848.733337 1629.59998,849.12 1632.96,849.12 C1636.32002,849.12 1639.19999,848.813336 1641.6,848.2 C1644.00001,847.586664 1646.01333,846.786672 1647.64,845.8 C1649.26667,844.813328 1650.54666,843.706673 1651.48,842.48 C1652.41334,841.253327 1653.13333,840.040006 1653.64,838.84 C1654.14667,837.639994 1654.46667,836.506672 1654.6,835.44 C1654.73333,834.373328 1654.8,833.520003 1654.8,832.88 C1654.8,830.533322 1654.41334,828.533342 1653.64,826.88 C1652.86666,825.226658 1651.80001,823.826672 1650.44,822.68 C1649.07999,821.533328 1647.50668,820.573337 1645.72,819.8 C1643.93332,819.026663 1642.02668,818.373336 1640,817.84 L1626.08,814.4 C1624.90666,814.133332 1623.80001,813.786669 1622.76,813.36 C1621.71999,812.933331 1620.8,812.373337 1620,811.68 C1619.2,810.986663 1618.57334,810.146672 1618.12,809.16 C1617.66666,808.173328 1617.44,807.01334 1617.44,805.68 C1617.44,803.546656 1617.84,801.760007 1618.64,800.32 C1619.44,798.879993 1620.49333,797.720004 1621.8,796.84 C1623.10667,795.959996 1624.62666,795.320002 1626.36,794.92 C1628.09334,794.519998 1629.89332,794.32 1631.76,794.32 C1633.78668,794.32 1635.71999,794.599997 1637.56,795.16 C1639.40001,795.720003 1641.02666,796.546661 1642.44,797.64 C1643.85334,798.733339 1645,800.093325 1645.88,801.72 C1646.76,803.346675 1647.25333,805.253322 1647.36,807.44 L1652.8,807.44 C1652.8,804.506652 1652.22667,801.933344 1651.08,799.72 C1649.93333,797.506656 1648.40001,795.653341 1646.48,794.16 C1644.55999,792.666659 1642.32001,791.54667 1639.76,790.8 C1637.19999,790.05333 1634.50668,789.68 1631.68,789.68 C1627.67998,789.68 1624.40001,790.253328 1621.84,791.4 C1619.27999,792.546672 1617.26667,793.946658 1615.8,795.6 C1614.33333,797.253342 1613.33334,799.013324 1612.8,800.88 C1612.26666,802.746676 1612,804.373326 1612,805.76 C1612,808.000011 1612.36,809.893326 1613.08,811.44 C1613.8,812.986674 1614.74666,814.293328 1615.92,815.36 C1617.09334,816.426672 1618.46666,817.279997 1620.04,817.92 C1621.61334,818.560003 1623.22666,819.093331 1624.88,819.52 L1637.6,822.64 C1638.93334,822.960002 1640.29333,823.373331 1641.68,823.88 C1643.06667,824.386669 1644.33333,825.039996 1645.48,825.84 C1646.62667,826.640004 1647.56,827.626661 1648.28,828.8 C1649,829.973339 1649.36,831.359992 1649.36,832.96 C1649.36,835.04001 1648.85334,836.813326 1647.84,838.28 C1646.82666,839.746674 1645.56001,840.946662 1644.04,841.88 C1642.51999,842.813338 1640.88001,843.493331 1639.12,843.92 C1637.35999,844.346669 1635.73334,844.56 1634.24,844.56 C1631.62665,844.56 1629.17334,844.306669 1626.88,843.8 C1624.58666,843.293331 1622.60001,842.453339 1620.92,841.28 C1619.23999,840.106661 1617.92,838.533343 1616.96,836.56 C1616,834.586657 1615.54667,832.133348 1615.6,829.2 L1615.6,829.2 Z M1670.84,790.88 L1670.84,848 L1676.28,848 L1676.28,790.88 L1670.84,790.88 Z M1736.96,808.16 L1742.4,808.16 C1742.02666,805.173318 1741.13334,802.533345 1739.72,800.24 C1738.30666,797.946655 1736.54668,796.013341 1734.44,794.44 C1732.33332,792.866659 1729.98668,791.680004 1727.4,790.88 C1724.81332,790.079996 1722.16001,789.68 1719.44,789.68 C1714.95998,789.68 1711.02668,790.493325 1707.64,792.12 C1704.25332,793.746675 1701.44001,795.93332 1699.2,798.68 C1696.95999,801.42668 1695.28001,804.586649 1694.16,808.16 C1693.03999,811.733351 1692.48,815.493314 1692.48,819.44 C1692.48,823.386686 1693.03999,827.146649 1694.16,830.72 C1695.28001,834.293351 1696.95999,837.439986 1699.2,840.16 C1701.44001,842.880014 1704.25332,845.053325 1707.64,846.68 C1711.02668,848.306675 1714.95998,849.12 1719.44,849.12 C1722.80002,849.12 1725.85332,848.586672 1728.6,847.52 C1731.34668,846.453328 1733.73332,844.933343 1735.76,842.96 C1737.78668,840.986657 1739.43999,838.586681 1740.72,835.76 C1742.00001,832.933319 1742.82666,829.760018 1743.2,826.24 L1737.76,826.24 C1737.49333,828.800013 1736.88,831.186656 1735.92,833.4 C1734.96,835.613344 1733.70667,837.546658 1732.16,839.2 C1730.61333,840.853342 1728.77334,842.159995 1726.64,843.12 C1724.50666,844.080005 1722.10668,844.56 1719.44,844.56 C1715.65331,844.56 1712.40001,843.840007 1709.68,842.4 C1706.95999,840.959993 1704.73334,839.053345 1703,836.68 C1701.26666,834.306655 1699.98667,831.613348 1699.16,828.6 C1698.33333,825.586652 1697.92,822.533349 1697.92,819.44 C1697.92,816.293318 1698.33333,813.226682 1699.16,810.24 C1699.98667,807.253318 1701.26666,804.573345 1703,802.2 C1704.73334,799.826655 1706.95999,797.920007 1709.68,796.48 C1712.40001,795.039993 1715.65331,794.32 1719.44,794.32 C1721.52001,794.32 1723.50666,794.626664 1725.4,795.24 C1727.29334,795.853336 1729.02666,796.746661 1730.6,797.92 C1732.17334,799.093339 1733.50666,800.546658 1734.6,802.28 C1735.69334,804.013342 1736.48,805.973322 1736.96,808.16 L1736.96,808.16 Z M1767.24,839.52 L1760.52,839.52 L1760.52,848 L1763.88,848 C1763.93333,848.58667 1763.89333,849.266663 1763.76,850.04 C1763.62667,850.813337 1763.4,851.559996 1763.08,852.28 C1762.76,853.000004 1762.36,853.65333 1761.88,854.24 C1761.4,854.82667 1760.84,855.226666 1760.2,855.44 L1760.2,858.88 C1761.37334,858.559998 1762.4,858.02667 1763.28,857.28 C1764.16,856.53333 1764.89333,855.666672 1765.48,854.68 C1766.06667,853.693328 1766.50667,852.626672 1766.8,851.48 C1767.09333,850.333328 1767.24,849.173339 1767.24,848 L1767.24,839.52 Z M524,887.200557 L524,944.320557 L561.44,944.320557 L561.44,939.680557 L529.44,939.680557 L529.44,887.200557 L524,887.200557 Z M574.36,887.200557 L574.36,944.320557 L579.8,944.320557 L579.8,887.200557 L574.36,887.200557 Z M601.28,925.520557 L595.84,925.520557 C595.679999,929.040574 596.146661,932.053877 597.24,934.560557 C598.333339,937.067236 599.893323,939.120549 601.92,940.720557 C603.946677,942.320565 606.399986,943.507219 609.28,944.280557 C612.160014,945.053894 615.279983,945.440557 618.64,945.440557 C622.000017,945.440557 624.879988,945.133893 627.28,944.520557 C629.680012,943.90722 631.693325,943.107228 633.32,942.120557 C634.946675,941.133885 636.226662,940.027229 637.16,938.800557 C638.093338,937.573884 638.813331,936.360563 639.32,935.160557 C639.826669,933.960551 640.146666,932.827229 640.28,931.760557 C640.413334,930.693885 640.48,929.84056 640.48,929.200557 C640.48,926.853878 640.093337,924.853898 639.32,923.200557 C638.546663,921.547215 637.480007,920.147229 636.12,919.000557 C634.759993,917.853884 633.186676,916.893894 631.4,916.120557 C629.613324,915.347219 627.706677,914.693893 625.68,914.160557 L611.76,910.720557 C610.586661,910.453889 609.480005,910.107225 608.44,909.680557 C607.399995,909.253888 606.480004,908.693893 605.68,908.000557 C604.879996,907.30722 604.253336,906.467228 603.8,905.480557 C603.346664,904.493885 603.12,903.333897 603.12,902.000557 C603.12,899.867213 603.519996,898.080564 604.32,896.640557 C605.120004,895.200549 606.173327,894.040561 607.48,893.160557 C608.786673,892.280552 610.306658,891.640559 612.04,891.240557 C613.773342,890.840555 615.573324,890.640557 617.44,890.640557 C619.466677,890.640557 621.399991,890.920554 623.24,891.480557 C625.080009,892.040559 626.70666,892.867218 628.12,893.960557 C629.53334,895.053895 630.679996,896.413882 631.56,898.040557 C632.440004,899.667231 632.933333,901.573879 633.04,903.760557 L638.48,903.760557 C638.48,900.827209 637.906672,898.253901 636.76,896.040557 C635.613328,893.827212 634.08001,891.973897 632.16,890.480557 C630.23999,888.987216 628.000013,887.867227 625.44,887.120557 C622.879987,886.373886 620.186681,886.000557 617.36,886.000557 C613.35998,886.000557 610.080013,886.573884 607.52,887.720557 C604.959987,888.867229 602.946674,890.267215 601.48,891.920557 C600.013326,893.573898 599.013336,895.333881 598.48,897.200557 C597.946664,899.067233 597.68,900.693883 597.68,902.080557 C597.68,904.320568 598.039996,906.213882 598.76,907.760557 C599.480004,909.307231 600.426661,910.613885 601.6,911.680557 C602.773339,912.747229 604.146659,913.600553 605.72,914.240557 C607.293341,914.88056 608.906658,915.413888 610.56,915.840557 L623.28,918.960557 C624.61334,919.280558 625.973326,919.693887 627.36,920.200557 C628.746674,920.707226 630.013328,921.360553 631.16,922.160557 C632.306672,922.960561 633.239996,923.947217 633.96,925.120557 C634.680004,926.293896 635.04,927.680549 635.04,929.280557 C635.04,931.360567 634.533338,933.133883 633.52,934.600557 C632.506662,936.067231 631.240008,937.267219 629.72,938.200557 C628.199992,939.133895 626.560009,939.813888 624.8,940.240557 C623.039991,940.667225 621.413341,940.880557 619.92,940.880557 C617.306654,940.880557 614.853345,940.627226 612.56,940.120557 C610.266655,939.613887 608.280008,938.773896 606.6,937.600557 C604.919992,936.427217 603.600005,934.8539 602.64,932.880557 C601.679995,930.907213 601.226666,928.453905 601.28,925.520557 L601.28,925.520557 Z M650.04,887.200557 L650.04,891.840557 L669.88,891.840557 L669.88,944.320557 L675.32,944.320557 L675.32,891.840557 L695.24,891.840557 L695.24,887.200557 L650.04,887.200557 Z M707.6,887.200557 L707.6,944.320557 L747.44,944.320557 L747.44,939.680557 L713.04,939.680557 L713.04,917.120557 L744.88,917.120557 L744.88,912.480557 L713.04,912.480557 L713.04,891.840557 L747.04,891.840557 L747.04,887.200557 L707.6,887.200557 Z M761.96,887.200557 L761.96,944.320557 L767.4,944.320557 L767.4,896.000557 L767.56,896.000557 L800.84,944.320557 L806.92,944.320557 L806.92,887.200557 L801.48,887.200557 L801.48,935.520557 L801.32,935.520557 L768.04,887.200557 L761.96,887.200557 Z M862.68,921.920557 L874.12,892.640557 L885.16,921.920557 L862.68,921.920557 Z M871.32,887.200557 L848.36,944.320557 L854.12,944.320557 L861,926.560557 L887,926.560557 L893.96,944.320557 L899.8,944.320557 L877.4,887.200557 L871.32,887.200557 Z M911.92,887.200557 L911.92,944.320557 L917.36,944.320557 L917.36,896.000557 L917.52,896.000557 L950.8,944.320557 L956.88,944.320557 L956.88,887.200557 L951.44,887.200557 L951.44,935.520557 L951.28,935.520557 L918,887.200557 L911.92,887.200557 Z M991.24,920.800557 L991.24,944.320557 L996.68,944.320557 L996.68,920.800557 L1019.24,887.200557 L1012.76,887.200557 L994.04,916.160557 L975.24,887.200557 L968.84,887.200557 L991.24,920.800557 Z M1025.44,887.200557 L1041.28,944.320557 L1047.2,944.320557 L1061.6,893.200557 L1061.76,893.200557 L1076.24,944.320557 L1082,944.320557 L1097.76,887.200557 L1092.32,887.200557 L1079.28,937.200557 L1079.12,937.200557 L1065.12,887.200557 L1058.32,887.200557 L1044.4,937.200557 L1044.24,937.200557 L1031.28,887.200557 L1025.44,887.200557 Z M1110.76,887.200557 L1110.76,944.320557 L1116.2,944.320557 L1116.2,916.640557 L1150.12,916.640557 L1150.12,944.320557 L1155.56,944.320557 L1155.56,887.200557 L1150.12,887.200557 L1150.12,912.000557 L1116.2,912.000557 L1116.2,887.200557 L1110.76,887.200557 Z M1174.08,887.200557 L1174.08,944.320557 L1213.92,944.320557 L1213.92,939.680557 L1179.52,939.680557 L1179.52,917.120557 L1211.36,917.120557 L1211.36,912.480557 L1179.52,912.480557 L1179.52,891.840557 L1213.52,891.840557 L1213.52,887.200557 L1174.08,887.200557 Z M1233.96,914.320557 L1233.96,891.840557 L1254.28,891.840557 C1258.44002,891.840557 1261.53332,892.85388 1263.56,894.880557 C1265.58668,896.907233 1266.6,899.680539 1266.6,903.200557 C1266.6,904.960565 1266.26667,906.52055 1265.6,907.880557 C1264.93333,909.240563 1264.04001,910.400552 1262.92,911.360557 C1261.79999,912.320561 1260.49334,913.053887 1259,913.560557 C1257.50666,914.067226 1255.93334,914.320557 1254.28,914.320557 L1233.96,914.320557 Z M1228.52,887.200557 L1228.52,944.320557 L1233.96,944.320557 L1233.96,918.960557 L1254.6,918.960557 C1257.16001,918.853889 1259.17333,919.280552 1260.64,920.240557 C1262.10667,921.200561 1263.22666,922.467215 1264,924.040557 C1264.77334,925.613898 1265.28,927.400547 1265.52,929.400557 C1265.76,931.400567 1265.93333,933.41388 1266.04,935.440557 C1266.09333,936.027226 1266.14667,936.720553 1266.2,937.520557 C1266.25333,938.320561 1266.32,939.133886 1266.4,939.960557 C1266.48,940.787227 1266.61333,941.587219 1266.8,942.360557 C1266.98667,943.133894 1267.24,943.787221 1267.56,944.320557 L1273.56,944.320557 C1272.97333,943.62722 1272.50667,942.653896 1272.16,941.400557 C1271.81333,940.147217 1271.56,938.813897 1271.4,937.400557 C1271.24,935.987216 1271.13333,934.58723 1271.08,933.200557 C1271.02667,931.813883 1270.97333,930.640561 1270.92,929.680557 C1270.81333,927.973881 1270.58667,926.387231 1270.24,924.920557 C1269.89333,923.453883 1269.33334,922.160562 1268.56,921.040557 C1267.78666,919.920551 1266.78667,919.00056 1265.56,918.280557 C1264.33333,917.560553 1262.78668,917.067225 1260.92,916.800557 L1260.92,916.640557 C1264.60002,915.893886 1267.37332,914.187237 1269.24,911.520557 C1271.10668,908.853877 1272.04,905.707241 1272.04,902.080557 C1272.04,899.520544 1271.57334,897.293899 1270.64,895.400557 C1269.70666,893.507214 1268.45334,891.960563 1266.88,890.760557 C1265.30666,889.560551 1263.46668,888.667226 1261.36,888.080557 C1259.25332,887.493887 1257.02668,887.200557 1254.68,887.200557 L1228.52,887.200557 Z M1288.88,887.200557 L1288.88,944.320557 L1328.72,944.320557 L1328.72,939.680557 L1294.32,939.680557 L1294.32,917.120557 L1326.16,917.120557 L1326.16,912.480557 L1294.32,912.480557 L1294.32,891.840557 L1328.32,891.840557 L1328.32,887.200557 L1288.88,887.200557 Z M1388.48,920.800557 L1388.48,944.320557 L1393.92,944.320557 L1393.92,920.800557 L1416.48,887.200557 L1410,887.200557 L1391.28,916.160557 L1372.48,887.200557 L1366.08,887.200557 L1388.48,920.800557 Z M1430.84,915.760557 C1430.84,912.613874 1431.25333,909.547238 1432.08,906.560557 C1432.90667,903.573875 1434.18666,900.893902 1435.92,898.520557 C1437.65334,896.147211 1439.87999,894.240564 1442.6,892.800557 C1445.32001,891.360549 1448.57331,890.640557 1452.36,890.640557 C1456.14669,890.640557 1459.38665,891.360549 1462.08,892.800557 C1464.77335,894.240564 1466.98666,896.147211 1468.72,898.520557 C1470.45334,900.893902 1471.73333,903.573875 1472.56,906.560557 C1473.38667,909.547238 1473.8,912.613874 1473.8,915.760557 C1473.8,918.853905 1473.38667,921.907208 1472.56,924.920557 C1471.73333,927.933905 1470.45334,930.627211 1468.72,933.000557 C1466.98666,935.373902 1464.77335,937.280549 1462.08,938.720557 C1459.38665,940.160564 1456.14669,940.880557 1452.36,940.880557 C1448.57331,940.880557 1445.32001,940.160564 1442.6,938.720557 C1439.87999,937.280549 1437.65334,935.373902 1435.92,933.000557 C1434.18666,930.627211 1432.90667,927.933905 1432.08,924.920557 C1431.25333,921.907208 1430.84,918.853905 1430.84,915.760557 L1430.84,915.760557 Z M1425.4,915.760557 C1425.4,919.707243 1425.95999,923.467205 1427.08,927.040557 C1428.20001,930.613908 1429.87999,933.760543 1432.12,936.480557 C1434.36001,939.20057 1437.17332,941.373882 1440.56,943.000557 C1443.94668,944.627231 1447.87998,945.440557 1452.36,945.440557 C1456.84002,945.440557 1460.75998,944.627231 1464.12,943.000557 C1467.48002,941.373882 1470.27999,939.20057 1472.52,936.480557 C1474.76001,933.760543 1476.43999,930.613908 1477.56,927.040557 C1478.68001,923.467205 1479.24,919.707243 1479.24,915.760557 C1479.24,911.81387 1478.68001,908.053908 1477.56,904.480557 C1476.43999,900.907205 1474.76001,897.747237 1472.52,895.000557 C1470.27999,892.253876 1467.48002,890.067231 1464.12,888.440557 C1460.75998,886.813882 1456.84002,886.000557 1452.36,886.000557 C1447.87998,886.000557 1443.94668,886.813882 1440.56,888.440557 C1437.17332,890.067231 1434.36001,892.253876 1432.12,895.000557 C1429.87999,897.747237 1428.20001,900.907205 1427.08,904.480557 C1425.95999,908.053908 1425.4,911.81387 1425.4,915.760557 L1425.4,915.760557 Z M1494.16,887.200557 L1494.16,923.760557 C1494.16,926.693905 1494.57333,929.480543 1495.4,932.120557 C1496.22667,934.76057 1497.53332,937.067213 1499.32,939.040557 C1501.10668,941.0139 1503.39999,942.573884 1506.2,943.720557 C1509.00001,944.867229 1512.37331,945.440557 1516.32,945.440557 C1520.32002,945.440557 1523.71999,944.867229 1526.52,943.720557 C1529.32001,942.573884 1531.61332,941.0139 1533.4,939.040557 C1535.18668,937.067213 1536.49333,934.76057 1537.32,932.120557 C1538.14667,929.480543 1538.56,926.693905 1538.56,923.760557 L1538.56,887.200557 L1533.12,887.200557 L1533.12,922.560557 C1533.12,925.86724 1532.74667,928.680545 1532,931.000557 C1531.25333,933.320568 1530.16001,935.213883 1528.72,936.680557 C1527.27999,938.147231 1525.52001,939.213887 1523.44,939.880557 C1521.35999,940.547227 1518.98668,940.880557 1516.32,940.880557 C1513.70665,940.880557 1511.36001,940.547227 1509.28,939.880557 C1507.19999,939.213887 1505.44001,938.147231 1504,936.680557 C1502.55999,935.213883 1501.46667,933.320568 1500.72,931.000557 C1499.97333,928.680545 1499.6,925.86724 1499.6,922.560557 L1499.6,887.200557 L1494.16,887.200557 Z M1585.76,887.200557 L1585.76,944.320557 L1623.2,944.320557 L1623.2,939.680557 L1591.2,939.680557 L1591.2,887.200557 L1585.76,887.200557 Z M1636.12,887.200557 L1636.12,944.320557 L1641.56,944.320557 L1641.56,887.200557 L1636.12,887.200557 Z M1660.48,887.200557 L1660.48,944.320557 L1665.92,944.320557 L1665.92,924.720557 L1676.88,914.560557 L1700.64,944.320557 L1707.68,944.320557 L1680.96,910.800557 L1706.48,887.200557 L1699.12,887.200557 L1665.92,917.920557 L1665.92,887.200557 L1660.48,887.200557 Z M1719.32,887.200557 L1719.32,944.320557 L1759.16,944.320557 L1759.16,939.680557 L1724.76,939.680557 L1724.76,917.120557 L1756.6,917.120557 L1756.6,912.480557 L1724.76,912.480557 L1724.76,891.840557 L1758.76,891.840557 L1758.76,887.200557 L1719.32,887.200557 Z" id="IT'S-YOUR-MUSIC,-"></path>
                </g>
            </g>
        </g>
    </g>
</svg>