<?xml version="1.0" encoding="UTF-8" standalone="no"?>
<svg width="1830px" height="1140px" viewBox="0 0 1830 1140" version="1.1" xmlns="http://www.w3.org/2000/svg" xmlns:xlink="http://www.w3.org/1999/xlink" xmlns:sketch="http://www.bohemiancoding.com/sketch/ns">
    <!-- Generator: Sketch 3.4.3 (16044) - http://www.bohemiancoding.com/sketch -->
    <title>Title</title>
    <desc>Created with Sketch.</desc>
    <defs></defs>
    <g id="Page-1" stroke="none" stroke-width="1" fill="none" fill-rule="evenodd" sketch:type="MSPage">
        <g id="Desktop-HD" sketch:type="MSArtboardGroup" transform="translate(-623.000000, -495.000000)">
            <g id="HomeScreens" sketch:type="MSLayerGroup" transform="translate(158.000000, 99.000000)">
                <g id="Title" transform="translate(465.000000, 396.000000)" sketch:type="MSShapeGroup">
                    <path d="M43,53 L43,178 L15,178 L15,0.5 L37,0.5 L138.5,128.5 L138.5,0.75 L166.75,0.75 L166.75,178 L143.5,178 L43,53 Z M348.5,153.25 L348.5,178 L226.75,178 L226.75,0.5 L346.25,0.5 L346.25,25.25 L254.75,25.25 L254.75,75.75 L334,75.75 L334,99 L254.75,99 L254.75,153.25 L348.5,153.25 Z M461.5,1.25 L487.75,1.25 L509.5,61.5 L531.5,1.25 L558,1.25 L527.5,80.25 L554.25,145.5 L609.5,0.5 L640,0.5 L567,178 L542.75,178 L509.75,98.5 L476.5,178 L452.5,178 L379.5,0.5 L409.75,0.5 L465.5,145.5 L491.75,80.25 L461.5,1.25 Z" id="NEW" fill="#CFD0D1"></path>
                    <path d="M110.04,471 L110.04,377.72 L68.6,449.88 L62.04,449.88 L20.44,377.72 L20.44,471 L9.4,471 L9.4,357.4 L20.76,357.4 L65.24,435.16 L109.72,357.4 L121.08,357.4 L121.08,471 L110.04,471 Z M208.6,461.72 C215.746703,461.72 221.69331,460.360014 226.44,457.64 C231.186691,454.919986 234.973319,451.346689 237.8,446.92 C240.626681,442.493311 242.599995,437.453362 243.72,431.8 C244.840006,426.146638 245.4,420.440029 245.4,414.68 L245.4,357.4 L256.6,357.4 L256.6,414.68 C256.6,422.360038 255.746675,429.639966 254.04,436.52 C252.333325,443.400034 249.586686,449.453307 245.8,454.68 C242.013315,459.906693 237.080031,464.066651 231,467.16 C224.91997,470.253349 217.506711,471.8 208.76,471.8 C199.693288,471.8 192.120031,470.17335 186.04,466.92 C179.95997,463.66665 175.053352,459.37336 171.32,454.04 C167.586648,448.70664 164.920008,442.626701 163.32,435.8 C161.719992,428.973299 160.92,421.93337 160.92,414.68 L160.92,357.4 L171.96,357.4 L171.96,414.68 C171.96,420.653363 172.546661,426.466638 173.72,432.12 C174.893339,437.773362 176.893319,442.786645 179.72,447.16 C182.546681,451.533355 186.306643,455.05332 191,457.72 C195.693357,460.38668 201.559965,461.72 208.6,461.72 L208.6,461.72 Z M363,378.68 C359.799984,375.053315 355.506694,372.120011 350.12,369.88 C344.733307,367.639989 338.680034,366.52 331.96,366.52 C321.826616,366.52 314.46669,368.413314 309.88,372.2 C305.293311,375.986686 303,381.133301 303,387.64 C303,391.05335 303.613328,393.853322 304.84,396.04 C306.066673,398.226678 307.986654,400.119992 310.6,401.72 C313.213347,403.320008 316.51998,404.706661 320.52,405.88 C324.52002,407.053339 329.239973,408.226661 334.68,409.4 C340.760031,410.680006 346.199976,412.093326 351,413.64 C355.800024,415.186674 359.90665,417.159988 363.32,419.56 C366.733351,421.960012 369.346658,424.893316 371.16,428.36 C372.973343,431.826684 373.88,436.119974 373.88,441.24 C373.88,446.466693 372.866677,450.999981 370.84,454.84 C368.813324,458.680019 365.986685,461.879987 362.36,464.44 C358.733316,467.000013 354.413359,468.893327 349.4,470.12 C344.386642,471.346673 338.946696,471.96 333.08,471.96 C315.266578,471.96 300.06673,466.466722 287.48,455.48 L292.92,446.36 C297.080021,450.733355 302.679965,454.439985 309.72,457.48 C316.760036,460.520015 324.599957,462.04 333.24,462.04 C342.306712,462.04 349.399975,460.41335 354.52,457.16 C359.640026,453.90665 362.2,448.973366 362.2,442.36 C362.2,438.839982 361.480008,435.880012 360.04,433.48 C358.599993,431.079988 356.440015,429.000009 353.56,427.24 C350.679986,425.479991 347.080022,423.960006 342.76,422.68 C338.439979,421.399994 333.453362,420.120006 327.8,418.84 C321.826637,417.453326 316.600023,416.013341 312.12,414.52 C307.639978,413.026659 303.880016,411.160011 300.84,408.92 C297.799985,406.679989 295.506675,403.986682 293.96,400.84 C292.413326,397.693318 291.64,393.82669 291.64,389.24 C291.64,384.013307 292.626657,379.346687 294.6,375.24 C296.573344,371.133313 299.346649,367.720014 302.92,365 C306.493352,362.279986 310.759976,360.200007 315.72,358.76 C320.680025,357.319993 326.146637,356.6 332.12,356.6 C339.586704,356.6 346.279971,357.746655 352.2,360.04 C358.12003,362.333345 363.479976,365.559979 368.28,369.72 L363,378.68 Z M407.000001,471 L407.000001,357.56 L418.040001,357.56 L418.040001,471 L407.000001,471 Z M452.280001,413.4 C452.280001,406.573299 453.479989,399.773367 455.880001,393 C458.280013,386.226633 461.773311,380.17336 466.360001,374.84 C470.94669,369.50664 476.599967,365.160017 483.320001,361.8 C490.040034,358.439983 497.666625,356.76 506.200001,356.76 C516.333385,356.76 524.973298,359.05331 532.120001,363.64 C539.266703,368.22669 544.599983,374.199963 548.120001,381.56 L539.160001,387 C537.346658,383.266648 535.160014,380.120013 532.600001,377.56 C530.039988,374.999987 527.266682,372.920008 524.280001,371.32 C521.293319,369.719992 518.200017,368.573337 515.000001,367.88 C511.799985,367.186663 508.65335,366.84 505.560001,366.84 C498.7333,366.84 492.706694,368.226653 487.480001,371 C482.253308,373.773347 477.853352,377.399978 474.280001,381.88 C470.70665,386.360022 468.013343,391.399972 466.200001,397 C464.386658,402.600028 463.480001,408.279971 463.480001,414.04 C463.480001,420.333365 464.573323,426.359971 466.760001,432.12 C468.946678,437.880029 471.933315,442.973311 475.720001,447.4 C479.506686,451.826689 483.986642,455.346654 489.160001,457.96 C494.33336,460.573346 499.95997,461.88 506.040001,461.88 C509.240017,461.88 512.519984,461.480004 515.880001,460.68 C519.240018,459.879996 522.493318,458.600009 525.640001,456.84 C528.786683,455.079991 531.693321,452.893346 534.360001,450.28 C537.026681,447.666654 539.266658,444.493352 541.080001,440.76 L550.360001,445.56 C548.546658,449.826688 545.986684,453.58665 542.680001,456.84 C539.373318,460.09335 535.693354,462.839989 531.640001,465.08 C527.586647,467.320011 523.293357,469.026661 518.760001,470.2 C514.226645,471.373339 509.773356,471.96 505.400001,471.96 C497.613295,471.96 490.4667,470.25335 483.960001,466.84 C477.453302,463.42665 471.853358,458.973361 467.160001,453.48 C462.466644,447.986639 458.813347,441.746702 456.200001,434.76 C453.586654,427.773298 452.280001,420.65337 452.280001,413.4 L452.280001,413.4 Z M76.12,538.68 C72.919984,535.053315 68.6266936,532.120011 63.24,529.88 C57.8533064,527.639989 51.8000336,526.52 45.08,526.52 C34.946616,526.52 27.5866896,528.413314 23,532.2 C18.4133104,535.986686 16.12,541.133301 16.12,547.64 C16.12,551.05335 16.7333272,553.853322 17.96,556.04 C19.1866728,558.226678 21.1066536,560.119992 23.72,561.72 C26.3333464,563.320008 29.63998,564.706661 33.64,565.88 C37.64002,567.053339 42.3599728,568.226661 47.8,569.4 C53.8800304,570.680006 59.319976,572.093326 64.12,573.64 C68.920024,575.186674 73.0266496,577.159988 76.44,579.56 C79.8533504,581.960012 82.4666576,584.893316 84.28,588.36 C86.0933424,591.826684 87,596.119974 87,601.24 C87,606.466693 85.9866768,610.999981 83.96,614.84 C81.9333232,618.680019 79.1066848,621.879987 75.48,624.44 C71.8533152,627.000013 67.5333584,628.893327 62.52,630.12 C57.5066416,631.346673 52.066696,631.96 46.2,631.96 C28.3865776,631.96 13.1867296,626.466722 0.6,615.48 L6.04,606.36 C10.2000208,610.733355 15.7999648,614.439985 22.84,617.48 C29.8800352,620.520015 37.7199568,622.04 46.36,622.04 C55.426712,622.04 62.5199744,620.41335 67.64,617.16 C72.7600256,613.90665 75.32,608.973366 75.32,602.36 C75.32,598.839982 74.6000072,595.880012 73.16,593.48 C71.7199928,591.079988 69.5600144,589.000009 66.68,587.24 C63.7999856,585.479991 60.2000216,583.960006 55.88,582.68 C51.5599784,581.399994 46.5733616,580.120006 40.92,578.84 C34.9466368,577.453326 29.7200224,576.013341 25.24,574.52 C20.7599776,573.026659 17.0000152,571.160011 13.96,568.92 C10.9199848,566.679989 8.6266744,563.986682 7.08,560.84 C5.5333256,557.693318 4.76,553.82669 4.76,549.24 C4.76,544.013307 5.7466568,539.346687 7.72,535.24 C9.6933432,531.133313 12.4666488,527.720014 16.04,525 C19.6133512,522.279986 23.8799752,520.200007 28.84,518.76 C33.8000248,517.319993 39.2666368,516.6 45.24,516.6 C52.706704,516.6 59.3999704,517.746655 65.32,520.04 C71.2400296,522.333345 76.599976,525.559979 81.4,529.72 L76.12,538.68 Z M196.44,621.08 L196.44,631 L120.12,631 L120.12,517.4 L195,517.4 L195,527.32 L131.16,527.32 L131.16,568.28 L186.84,568.28 L186.84,577.72 L131.16,577.72 L131.16,621.08 L196.44,621.08 Z M231,631 L231,517.4 L278.84,517.4 C283.746692,517.4 288.27998,518.43999 292.44,520.52 C296.600021,522.60001 300.173319,525.319983 303.16,528.68 C306.146682,532.040017 308.466659,535.853312 310.12,540.12 C311.773342,544.386688 312.6,548.706645 312.6,553.08 C312.6,557.240021 311.986673,561.213314 310.76,565 C309.533328,568.786686 307.800012,572.199985 305.56,575.24 C303.319989,578.280015 300.653349,580.83999 297.56,582.92 C294.466652,585.00001 291.00002,586.41333 287.16,587.16 L315.16,631 L302.52,631 L275.64,589.08 L242.04,589.08 L242.04,631 L231,631 Z M242.04,579.16 L279.32,579.16 C282.626684,579.16 285.639987,578.440007 288.36,577 C291.080014,575.559993 293.399991,573.613346 295.32,571.16 C297.24001,568.706654 298.733328,565.933349 299.8,562.84 C300.866672,559.746651 301.4,556.49335 301.4,553.08 C301.4,549.66665 300.786673,546.386682 299.56,543.24 C298.333328,540.093318 296.680011,537.346678 294.6,535 C292.51999,532.653322 290.066681,530.786674 287.24,529.4 C284.41332,528.013326 281.453349,527.32 278.36,527.32 L242.04,527.32 L242.04,579.16 Z M345.400001,517.4 L386.040001,617.08 L426.360001,517.4 L438.200001,517.4 L390.840001,631 L381.080001,631 L333.720001,517.4 L345.400001,517.4 Z M467.320001,631 L467.320001,517.56 L478.360001,517.56 L478.360001,631 L467.320001,631 Z M512.600001,573.4 C512.600001,566.573299 513.799989,559.773367 516.200001,553 C518.600013,546.226633 522.093311,540.17336 526.680001,534.84 C531.266691,529.50664 536.919967,525.160017 543.640001,521.8 C550.360035,518.439983 557.986625,516.76 566.520001,516.76 C576.653385,516.76 585.293299,519.05331 592.440001,523.64 C599.586703,528.22669 604.919983,534.199963 608.440001,541.56 L599.480001,547 C597.666659,543.266648 595.480014,540.120013 592.920001,537.56 C590.359988,534.999987 587.586683,532.920008 584.600001,531.32 C581.613319,529.719992 578.520017,528.573337 575.320001,527.88 C572.119985,527.186663 568.97335,526.84 565.880001,526.84 C559.0533,526.84 553.026694,528.226653 547.800001,531 C542.573308,533.773347 538.173352,537.399978 534.600001,541.88 C531.02665,546.360022 528.333343,551.399972 526.520001,557 C524.706659,562.600028 523.800001,568.279971 523.800001,574.04 C523.800001,580.333365 524.893323,586.359971 527.080001,592.12 C529.266679,597.880029 532.253315,602.973311 536.040001,607.4 C539.826687,611.826689 544.306642,615.346654 549.480001,617.96 C554.65336,620.573346 560.279971,621.88 566.360001,621.88 C569.560017,621.88 572.839984,621.480004 576.200001,620.68 C579.560018,619.879996 582.813319,618.600009 585.960001,616.84 C589.106683,615.079991 592.013321,612.893346 594.680001,610.28 C597.346681,607.666654 599.586659,604.493352 601.400001,600.76 L610.680001,605.56 C608.866659,609.826688 606.306684,613.58665 603.000001,616.84 C599.693318,620.09335 596.013355,622.839989 591.960001,625.08 C587.906647,627.320011 583.613357,629.026661 579.080001,630.2 C574.546645,631.373339 570.093356,631.96 565.720001,631.96 C557.933295,631.96 550.7867,630.25335 544.280001,626.84 C537.773302,623.42665 532.173358,618.973361 527.480001,613.48 C522.786644,607.986639 519.133347,601.746702 516.520001,594.76 C513.906655,587.773298 512.600001,580.65337 512.600001,573.4 L512.600001,573.4 Z M719.320001,621.08 L719.320001,631 L643.000001,631 L643.000001,517.4 L717.880001,517.4 L717.880001,527.32 L654.040001,527.32 L654.040001,568.28 L709.720001,568.28 L709.720001,577.72 L654.040001,577.72 L654.040001,621.08 L719.320001,621.08 Z" id="MUSIC" fill="#CFD0D1"></path>
                    <path d="M1056.6,846 L1056.6,789.28 L1060.68,789.28 L1060.68,846 L1056.6,846 Z M1121.96,792.88 L1101.16,792.88 L1101.16,846 L1097.08,846 L1097.08,792.88 L1076.28,792.88 L1076.28,789.2 L1121.96,789.2 L1121.96,792.88 Z M1134.44,787.6 C1135.77334,787.6 1136.93333,787.93333 1137.92,788.6 C1138.90667,789.26667 1139.4,790.346659 1139.4,791.84 L1139.4,801.2 L1135.88,801.2 L1135.88,792.24 C1135.88,791.65333 1135.74667,791.266668 1135.48,791.08 C1135.21333,790.893332 1134.86667,790.8 1134.44,790.8 L1134.44,787.6 Z M1191.96,798.64 C1188.27998,794.533313 1183.08003,792.48 1176.36,792.48 C1170.8133,792.48 1166.77334,793.533323 1164.24,795.64 C1161.70665,797.746677 1160.44,800.586649 1160.44,804.16 C1160.44,805.973342 1160.76,807.493327 1161.4,808.72 C1162.04,809.946673 1163.03999,810.973329 1164.4,811.8 C1165.76001,812.626671 1167.49332,813.346664 1169.6,813.96 C1171.70668,814.573336 1174.19998,815.17333 1177.08,815.76 C1180.17335,816.400003 1182.94665,817.106663 1185.4,817.88 C1187.85334,818.653337 1189.94666,819.626661 1191.68,820.8 C1193.41334,821.973339 1194.74666,823.413325 1195.68,825.12 C1196.61334,826.826675 1197.08,828.933321 1197.08,831.44 C1197.08,833.946679 1196.58667,836.133324 1195.6,838 C1194.61333,839.866676 1193.22667,841.42666 1191.44,842.68 C1189.65332,843.93334 1187.52001,844.879997 1185.04,845.52 C1182.55999,846.160003 1179.80001,846.48 1176.76,846.48 C1167.90662,846.48 1160.41336,843.653362 1154.28,838 L1156.44,834.72 C1158.84001,837.226679 1161.77331,839.213326 1165.24,840.68 C1168.70668,842.146674 1172.59998,842.88 1176.92,842.88 C1181.88002,842.88 1185.75998,841.973342 1188.56,840.16 C1191.36001,838.346658 1192.76,835.600018 1192.76,831.92 C1192.76,830.053324 1192.4,828.466673 1191.68,827.16 C1190.95999,825.853327 1189.85334,824.720005 1188.36,823.76 C1186.86666,822.799995 1185.01334,821.973337 1182.8,821.28 C1180.58665,820.586663 1177.98668,819.920003 1175,819.28 C1171.95998,818.639997 1169.28001,817.960004 1166.96,817.24 C1164.63999,816.519996 1162.68001,815.613339 1161.08,814.52 C1159.47999,813.426661 1158.28,812.106674 1157.48,810.56 C1156.67999,809.013326 1156.28,807.066678 1156.28,804.72 C1156.28,802.159987 1156.77333,799.893343 1157.76,797.92 C1158.74667,795.946657 1160.11999,794.280007 1161.88,792.92 C1163.64001,791.559993 1165.74665,790.533337 1168.2,789.84 C1170.65334,789.146663 1173.37332,788.8 1176.36,788.8 C1180.04002,788.8 1183.31998,789.346661 1186.2,790.44 C1189.08001,791.533339 1191.69332,793.199989 1194.04,795.44 L1191.96,798.64 Z M1236.12,789.2 L1255.96,820.64 L1275.96,789.2 L1280.44,789.2 L1258.04,824.56 L1258.04,846 L1253.96,846 L1253.96,824.4 L1231.64,789.2 L1236.12,789.2 Z M1314.76,846.4 C1310.81331,846.4 1307.21335,845.573342 1303.96,843.92 C1300.70665,842.266658 1297.90668,840.10668 1295.56,837.44 C1293.21332,834.77332 1291.40001,831.706684 1290.12,828.24 C1288.83999,824.773316 1288.2,821.226685 1288.2,817.6 C1288.2,813.813314 1288.87999,810.186684 1290.24,806.72 C1291.60001,803.253316 1293.46665,800.18668 1295.84,797.52 C1298.21334,794.85332 1301.02665,792.733341 1304.28,791.16 C1307.53335,789.586659 1311.05331,788.8 1314.84,788.8 C1318.78669,788.8 1322.38665,789.639992 1325.64,791.32 C1328.89335,793.000008 1331.67999,795.199986 1334,797.92 C1336.32001,800.640014 1338.11999,803.719983 1339.4,807.16 C1340.68001,810.600017 1341.32,814.079982 1341.32,817.6 C1341.32,821.440019 1340.64001,825.093316 1339.28,828.56 C1337.91999,832.026684 1336.05334,835.079987 1333.68,837.72 C1331.30665,840.360013 1328.50668,842.466659 1325.28,844.04 C1322.05332,845.613341 1318.54668,846.4 1314.76,846.4 L1314.76,846.4 Z M1292.28,817.6 C1292.28,820.85335 1292.82666,823.986652 1293.92,827 C1295.01334,830.013348 1296.55999,832.679988 1298.56,835 C1300.56001,837.320012 1302.93332,839.173326 1305.68,840.56 C1308.42668,841.946674 1311.45332,842.64 1314.76,842.64 C1318.17335,842.64 1321.25332,841.920007 1324,840.48 C1326.74668,839.039993 1329.10666,837.133345 1331.08,834.76 C1333.05334,832.386655 1334.57333,829.706682 1335.64,826.72 C1336.70667,823.733318 1337.24,820.693349 1337.24,817.6 C1337.24,814.34665 1336.68,811.213348 1335.56,808.2 C1334.43999,805.186652 1332.88001,802.520012 1330.88,800.2 C1328.87999,797.879988 1326.50668,796.026674 1323.76,794.64 C1321.01332,793.253326 1318.01335,792.56 1314.76,792.56 C1311.34665,792.56 1308.25335,793.279993 1305.48,794.72 C1302.70665,796.160007 1300.34668,798.066655 1298.4,800.44 C1296.45332,802.813345 1294.94667,805.493318 1293.88,808.48 C1292.81333,811.466682 1292.28,814.506651 1292.28,817.6 L1292.28,817.6 Z M1381.8,842.64 C1385.64002,842.64 1388.82665,841.920007 1391.36,840.48 C1393.89334,839.039993 1395.90666,837.146678 1397.4,834.8 C1398.89334,832.453322 1399.94666,829.786682 1400.56,826.8 C1401.17334,823.813318 1401.48,820.800015 1401.48,817.76 L1401.48,789.2 L1405.56,789.2 L1405.56,817.76 C1405.56,821.546686 1405.14667,825.173316 1404.32,828.64 C1403.49333,832.106684 1402.14667,835.159987 1400.28,837.8 C1398.41332,840.440013 1395.97335,842.533326 1392.96,844.08 C1389.94665,845.626674 1386.25335,846.4 1381.88,846.4 C1377.39998,846.4 1373.64001,845.586675 1370.6,843.96 C1367.55998,842.333325 1365.12001,840.173347 1363.28,837.48 C1361.43999,834.786653 1360.13334,831.73335 1359.36,828.32 C1358.58666,824.90665 1358.2,821.386685 1358.2,817.76 L1358.2,789.2 L1362.28,789.2 L1362.28,817.76 C1362.28,820.906682 1362.58666,823.973318 1363.2,826.96 C1363.81334,829.946682 1364.86666,832.599988 1366.36,834.92 C1367.85334,837.240012 1369.85332,839.10666 1372.36,840.52 C1374.86668,841.93334 1378.01331,842.64 1381.8,842.64 L1381.8,842.64 Z M1426.04,846 L1426.04,789.2 L1449.72,789.2 C1452.12001,789.2 1454.33332,789.706662 1456.36,790.72 C1458.38668,791.733338 1460.11999,793.079992 1461.56,794.76 C1463.00001,796.440008 1464.13333,798.333323 1464.96,800.44 C1465.78667,802.546677 1466.2,804.666656 1466.2,806.8 C1466.2,808.88001 1465.88,810.893324 1465.24,812.84 C1464.6,814.786676 1463.69334,816.533326 1462.52,818.08 C1461.34666,819.626674 1459.93334,820.906662 1458.28,821.92 C1456.62666,822.933338 1454.81334,823.599998 1452.84,823.92 L1467,846 L1462.28,846 L1448.52,824.56 L1430.12,824.56 L1430.12,846 L1426.04,846 Z M1430.12,820.8 L1450.04,820.8 C1451.85334,820.8 1453.50666,820.400004 1455,819.6 C1456.49334,818.799996 1457.77333,817.746673 1458.84,816.44 C1459.90667,815.133327 1460.72,813.640008 1461.28,811.96 C1461.84,810.279992 1462.12,808.560009 1462.12,806.8 C1462.12,804.986658 1461.78667,803.240008 1461.12,801.56 C1460.45333,799.879992 1459.54667,798.400006 1458.4,797.12 C1457.25333,795.839994 1455.92001,794.813337 1454.4,794.04 C1452.87999,793.266663 1451.24001,792.88 1449.48,792.88 L1430.12,792.88 L1430.12,820.8 Z M1563.64,846 L1563.64,796.88 L1541.24,835.2 L1538.68,835.2 L1516.28,796.88 L1516.28,846 L1512.2,846 L1512.2,789.2 L1516.28,789.2 L1539.96,829.84 L1563.64,789.2 L1567.72,789.2 L1567.72,846 L1563.64,846 Z M1611.88,842.64 C1615.72002,842.64 1618.90665,841.920007 1621.44,840.48 C1623.97335,839.039993 1625.98666,837.146678 1627.48,834.8 C1628.97334,832.453322 1630.02666,829.786682 1630.64,826.8 C1631.25334,823.813318 1631.56,820.800015 1631.56,817.76 L1631.56,789.2 L1635.64,789.2 L1635.64,817.76 C1635.64,821.546686 1635.22667,825.173316 1634.4,828.64 C1633.57333,832.106684 1632.22668,835.159987 1630.36,837.8 C1628.49332,840.440013 1626.05335,842.533326 1623.04,844.08 C1620.02665,845.626674 1616.33335,846.4 1611.96,846.4 C1607.47998,846.4 1603.72001,845.586675 1600.68,843.96 C1597.63998,842.333325 1595.20001,840.173347 1593.36,837.48 C1591.51999,834.786653 1590.21334,831.73335 1589.44,828.32 C1588.66666,824.90665 1588.28,821.386685 1588.28,817.76 L1588.28,789.2 L1592.36,789.2 L1592.36,817.76 C1592.36,820.906682 1592.66666,823.973318 1593.28,826.96 C1593.89334,829.946682 1594.94666,832.599988 1596.44,834.92 C1597.93334,837.240012 1599.93332,839.10666 1602.44,840.52 C1604.94668,841.93334 1608.09331,842.64 1611.88,842.64 L1611.88,842.64 Z M1689.32,798.64 C1685.63998,794.533313 1680.44003,792.48 1673.72,792.48 C1668.1733,792.48 1664.13335,793.533323 1661.6,795.64 C1659.06665,797.746677 1657.8,800.586649 1657.8,804.16 C1657.8,805.973342 1658.12,807.493327 1658.76,808.72 C1659.4,809.946673 1660.39999,810.973329 1661.76,811.8 C1663.12001,812.626671 1664.85332,813.346664 1666.96,813.96 C1669.06668,814.573336 1671.55998,815.17333 1674.44,815.76 C1677.53335,816.400003 1680.30665,817.106663 1682.76,817.88 C1685.21334,818.653337 1687.30666,819.626661 1689.04,820.8 C1690.77334,821.973339 1692.10666,823.413325 1693.04,825.12 C1693.97334,826.826675 1694.44,828.933321 1694.44,831.44 C1694.44,833.946679 1693.94667,836.133324 1692.96,838 C1691.97333,839.866676 1690.58667,841.42666 1688.8,842.68 C1687.01332,843.93334 1684.88001,844.879997 1682.4,845.52 C1679.91999,846.160003 1677.16001,846.48 1674.12,846.48 C1665.26662,846.48 1657.77336,843.653362 1651.64,838 L1653.8,834.72 C1656.20001,837.226679 1659.13332,839.213326 1662.6,840.68 C1666.06668,842.146674 1669.95998,842.88 1674.28,842.88 C1679.24002,842.88 1683.11999,841.973342 1685.92,840.16 C1688.72001,838.346658 1690.12,835.600018 1690.12,831.92 C1690.12,830.053324 1689.76,828.466673 1689.04,827.16 C1688.32,825.853327 1687.21334,824.720005 1685.72,823.76 C1684.22666,822.799995 1682.37334,821.973337 1680.16,821.28 C1677.94665,820.586663 1675.34668,819.920003 1672.36,819.28 C1669.31998,818.639997 1666.64001,817.960004 1664.32,817.24 C1661.99999,816.519996 1660.04001,815.613339 1658.44,814.52 C1656.83999,813.426661 1655.64,812.106674 1654.84,810.56 C1654.04,809.013326 1653.64,807.066678 1653.64,804.72 C1653.64,802.159987 1654.13333,799.893343 1655.12,797.92 C1656.10667,795.946657 1657.47999,794.280007 1659.24,792.92 C1661.00001,791.559993 1663.10665,790.533337 1665.56,789.84 C1668.01334,789.146663 1670.73332,788.8 1673.72,788.8 C1677.40002,788.8 1680.67998,789.346661 1683.56,790.44 C1686.44001,791.533339 1689.05332,793.199989 1691.4,795.44 L1689.32,798.64 Z M1711.4,846 L1711.4,789.28 L1715.48,789.28 L1715.48,846 L1711.4,846 Z M1733.16,817.2 C1733.16,813.78665 1733.75999,810.386684 1734.96,807 C1736.16001,803.613316 1737.90665,800.58668 1740.2,797.92 C1742.49334,795.25332 1745.30665,793.080008 1748.64,791.4 C1751.97335,789.719992 1755.77331,788.88 1760.04,788.88 C1765.10669,788.88 1769.42665,790.039988 1773,792.36 C1776.57335,794.680012 1779.21332,797.653315 1780.92,801.28 L1777.56,803.2 C1776.59999,801.226657 1775.44001,799.57334 1774.08,798.24 C1772.71999,796.90666 1771.25334,795.826671 1769.68,795 C1768.10666,794.173329 1766.46667,793.573335 1764.76,793.2 C1763.05332,792.826665 1761.37334,792.64 1759.72,792.64 C1756.09331,792.64 1752.89335,793.373326 1750.12,794.84 C1747.34665,796.306674 1745.00001,798.213322 1743.08,800.56 C1741.15999,802.906678 1739.70667,805.559985 1738.72,808.52 C1737.73333,811.480015 1737.24,814.453318 1737.24,817.44 C1737.24,820.800017 1737.82666,823.999985 1739,827.04 C1740.17334,830.080015 1741.77332,832.759988 1743.8,835.08 C1745.82668,837.400012 1748.22665,839.253326 1751,840.64 C1753.77335,842.026674 1756.75998,842.72 1759.96,842.72 C1761.66667,842.72 1763.41332,842.506669 1765.2,842.08 C1766.98668,841.653331 1768.71999,840.986671 1770.4,840.08 C1772.08001,839.173329 1773.63999,838.01334 1775.08,836.6 C1776.52001,835.18666 1777.71999,833.52001 1778.68,831.6 L1782.12,833.28 C1781.15999,835.413344 1779.86667,837.306658 1778.24,838.96 C1776.61332,840.613342 1774.78668,841.999994 1772.76,843.12 C1770.73332,844.240006 1768.58668,845.079997 1766.32,845.64 C1764.05332,846.200003 1761.82668,846.48 1759.64,846.48 C1755.74665,846.48 1752.18668,845.626675 1748.96,843.92 C1745.73332,842.213325 1742.94668,839.98668 1740.6,837.24 C1738.25332,834.49332 1736.42667,831.373351 1735.12,827.88 C1733.81333,824.386649 1733.16,820.826685 1733.16,817.2 L1733.16,817.2 Z M1796.2,847.12 C1796.57333,847.12 1796.90666,847.026668 1797.2,846.84 C1797.49333,846.653332 1797.64,846.26667 1797.64,845.68 L1797.64,839.2 L1801.16,839.2 L1801.16,846.16 C1801.16,847.653341 1800.65334,848.719997 1799.64,849.36 C1798.62666,850.000003 1797.48001,850.32 1796.2,850.32 L1796.2,847.12 Z M653.479998,899.6 L657.479998,899.6 L665.959998,920.24 L674.439998,899.6 L678.439998,899.6 L668.439998,923.52 L680.359998,951.2 L702.119998,899.2 L706.599998,899.2 L682.279998,956 L678.519998,956 L666.039998,926.8 L653.479998,956 L649.719998,956 L625.479998,899.2 L629.879998,899.2 L651.719998,951.2 L663.479998,923.52 L653.479998,899.6 Z M765.719998,899.2 L765.719998,956 L761.639998,956 L761.639998,928.8 L725.799998,928.8 L725.799998,956 L721.719998,956 L721.719998,899.2 L725.799998,899.2 L725.799998,925.12 L761.639998,925.12 L761.639998,899.2 L765.719998,899.2 Z M824.999998,952.32 L824.999998,956 L787.159998,956 L787.159998,899.2 L824.279998,899.2 L824.279998,902.88 L791.239998,902.88 L791.239998,925.2 L820.119998,925.2 L820.119998,928.72 L791.239998,928.72 L791.239998,952.32 L824.999998,952.32 Z M842.759998,956 L842.759998,899.2 L866.439998,899.2 C868.84001,899.2 871.053321,899.706662 873.079998,900.72 C875.106675,901.733338 876.839991,903.079992 878.279998,904.76 C879.720005,906.440008 880.853327,908.333323 881.679998,910.44 C882.506669,912.546677 882.919998,914.666656 882.919998,916.8 C882.919998,918.88001 882.600001,920.893324 881.959998,922.84 C881.319995,924.786676 880.413337,926.533326 879.239998,928.08 C878.066659,929.626674 876.65334,930.906662 874.999998,931.92 C873.346656,932.933338 871.533341,933.599998 869.559998,933.92 L883.719998,956 L878.999998,956 L865.239998,934.56 L846.839998,934.56 L846.839998,956 L842.759998,956 Z M846.839998,930.8 L866.759998,930.8 C868.57334,930.8 870.226657,930.400004 871.719998,929.6 C873.213339,928.799996 874.493326,927.746673 875.559998,926.44 C876.62667,925.133327 877.439995,923.640008 877.999998,921.96 C878.560001,920.279992 878.839998,918.560009 878.839998,916.8 C878.839998,914.986658 878.506668,913.240008 877.839998,911.56 C877.173328,909.879992 876.26667,908.400006 875.119998,907.12 C873.973326,905.839994 872.640006,904.813337 871.119998,904.04 C869.59999,903.266663 867.960007,902.88 866.199998,902.88 L846.839998,902.88 L846.839998,930.8 Z M939.479998,952.32 L939.479998,956 L901.639998,956 L901.639998,899.2 L938.759998,899.2 L938.759998,902.88 L905.719998,902.88 L905.719998,925.2 L934.599998,925.2 L934.599998,928.72 L905.719998,928.72 L905.719998,952.32 L939.479998,952.32 Z M980.759998,927.2 C980.759998,923.78665 981.359992,920.386684 982.559998,917 C983.760004,913.613316 985.506654,910.58668 987.799998,907.92 C990.093343,905.25332 992.906648,903.080008 996.239998,901.4 C999.573348,899.719992 1003.37331,898.88 1007.64,898.88 C1012.70669,898.88 1017.02665,900.039988 1020.6,902.36 C1024.17335,904.680012 1026.81332,907.653315 1028.52,911.28 L1025.16,913.2 C1024.19999,911.226657 1023.04001,909.57334 1021.68,908.24 C1020.31999,906.90666 1018.85334,905.826671 1017.28,905 C1015.70666,904.173329 1014.06667,903.573335 1012.36,903.2 C1010.65332,902.826665 1008.97334,902.64 1007.32,902.64 C1003.69331,902.64 1000.49335,903.373326 997.719998,904.84 C994.946651,906.306674 992.600008,908.213322 990.679998,910.56 C988.759989,912.906678 987.30667,915.559985 986.319998,918.52 C985.333327,921.480015 984.839998,924.453318 984.839998,927.44 C984.839998,930.800017 985.426659,933.999985 986.599998,937.04 C987.773338,940.080015 989.373322,942.759988 991.399998,945.08 C993.426675,947.400012 995.826651,949.253326 998.599998,950.64 C1001.37335,952.026674 1004.35998,952.72 1007.56,952.72 C1009.26667,952.72 1011.01332,952.506669 1012.8,952.08 C1014.58667,951.653331 1016.31999,950.986671 1018,950.08 C1019.68001,949.173329 1021.23999,948.01334 1022.68,946.6 C1024.12001,945.18666 1025.31999,943.52001 1026.28,941.6 L1029.72,943.28 C1028.75999,945.413344 1027.46667,947.306658 1025.84,948.96 C1024.21332,950.613342 1022.38668,951.999994 1020.36,953.12 C1018.33332,954.240006 1016.18668,955.079997 1013.92,955.64 C1011.65332,956.200003 1009.42668,956.48 1007.24,956.48 C1003.34665,956.48 999.786681,955.626675 996.559998,953.92 C993.333316,952.213325 990.546677,949.98668 988.199998,947.24 C985.85332,944.49332 984.026672,941.373351 982.719998,937.88 C981.413325,934.386649 980.759998,930.826685 980.759998,927.2 L980.759998,927.2 Z M1039.56,956 L1063.72,899.2 L1067.08,899.2 L1091.24,956 L1086.84,956 L1078.92,937.28 L1051.8,937.28 L1043.88,956 L1039.56,956 Z M1065.4,904.16 L1052.76,933.92 L1077.8,933.92 L1065.4,904.16 Z M1110.6,906.88 L1110.6,956 L1106.52,956 L1106.52,899.2 L1109.64,899.2 L1149.48,949.2 L1149.48,899.28 L1153.56,899.28 L1153.56,956 L1149.8,956 L1110.6,906.88 Z M1171.88,897.6 C1173.21334,897.6 1174.37333,897.93333 1175.36,898.6 C1176.34667,899.26667 1176.84,900.346659 1176.84,901.84 L1176.84,911.2 L1173.32,911.2 L1173.32,902.24 C1173.32,901.65333 1173.18667,901.266668 1172.92,901.08 C1172.65333,900.893332 1172.30667,900.8 1171.88,900.8 L1171.88,897.6 Z M1236.04,902.88 L1215.24,902.88 L1215.24,956 L1211.16,956 L1211.16,902.88 L1190.36,902.88 L1190.36,899.2 L1236.04,899.2 L1236.04,902.88 Z M1271.64,899.2 L1291.48,930.64 L1311.48,899.2 L1315.96,899.2 L1293.56,934.56 L1293.56,956 L1289.48,956 L1289.48,934.4 L1267.16,899.2 L1271.64,899.2 Z M1350.28,956.4 C1346.33331,956.4 1342.73335,955.573342 1339.48,953.92 C1336.22665,952.266658 1333.42668,950.10668 1331.08,947.44 C1328.73332,944.77332 1326.92001,941.706684 1325.64,938.24 C1324.35999,934.773316 1323.72,931.226685 1323.72,927.6 C1323.72,923.813314 1324.39999,920.186684 1325.76,916.72 C1327.12001,913.253316 1328.98665,910.18668 1331.36,907.52 C1333.73334,904.85332 1336.54665,902.733341 1339.8,901.16 C1343.05335,899.586659 1346.57331,898.8 1350.36,898.8 C1354.30669,898.8 1357.90665,899.639992 1361.16,901.32 C1364.41335,903.000008 1367.19999,905.199986 1369.52,907.92 C1371.84001,910.640014 1373.63999,913.719983 1374.92,917.16 C1376.20001,920.600017 1376.84,924.079982 1376.84,927.6 C1376.84,931.440019 1376.16001,935.093316 1374.8,938.56 C1373.43999,942.026684 1371.57334,945.079987 1369.2,947.72 C1366.82665,950.360013 1364.02668,952.466659 1360.8,954.04 C1357.57332,955.613341 1354.06668,956.4 1350.28,956.4 L1350.28,956.4 Z M1327.8,927.6 C1327.8,930.85335 1328.34666,933.986652 1329.44,937 C1330.53334,940.013348 1332.07999,942.679988 1334.08,945 C1336.08001,947.320012 1338.45332,949.173326 1341.2,950.56 C1343.94668,951.946674 1346.97332,952.64 1350.28,952.64 C1353.69335,952.64 1356.77332,951.920007 1359.52,950.48 C1362.26668,949.039993 1364.62666,947.133345 1366.6,944.76 C1368.57334,942.386655 1370.09333,939.706682 1371.16,936.72 C1372.22667,933.733318 1372.76,930.693349 1372.76,927.6 C1372.76,924.34665 1372.2,921.213348 1371.08,918.2 C1369.95999,915.186652 1368.40001,912.520012 1366.4,910.2 C1364.39999,907.879988 1362.02668,906.026674 1359.28,904.64 C1356.53332,903.253326 1353.53335,902.56 1350.28,902.56 C1346.86665,902.56 1343.77335,903.279993 1341,904.72 C1338.22665,906.160007 1335.86668,908.066655 1333.92,910.44 C1331.97332,912.813345 1330.46667,915.493318 1329.4,918.48 C1328.33333,921.466682 1327.8,924.506651 1327.8,927.6 L1327.8,927.6 Z M1417.32,952.64 C1421.16002,952.64 1424.34665,951.920007 1426.88,950.48 C1429.41335,949.039993 1431.42666,947.146678 1432.92,944.8 C1434.41334,942.453322 1435.46666,939.786682 1436.08,936.8 C1436.69334,933.813318 1437,930.800015 1437,927.76 L1437,899.2 L1441.08,899.2 L1441.08,927.76 C1441.08,931.546686 1440.66667,935.173316 1439.84,938.64 C1439.01333,942.106684 1437.66668,945.159987 1435.8,947.8 C1433.93332,950.440013 1431.49335,952.533326 1428.48,954.08 C1425.46665,955.626674 1421.77335,956.4 1417.4,956.4 C1412.91998,956.4 1409.16001,955.586675 1406.12,953.96 C1403.07998,952.333325 1400.64001,950.173347 1398.8,947.48 C1396.95999,944.786653 1395.65334,941.73335 1394.88,938.32 C1394.10666,934.90665 1393.72,931.386685 1393.72,927.76 L1393.72,899.2 L1397.8,899.2 L1397.8,927.76 C1397.8,930.906682 1398.10666,933.973318 1398.72,936.96 C1399.33334,939.946682 1400.38666,942.599988 1401.88,944.92 C1403.37334,947.240012 1405.37332,949.10666 1407.88,950.52 C1410.38668,951.93334 1413.53331,952.64 1417.32,952.64 L1417.32,952.64 Z M1488.84,956 L1488.84,899.2 L1492.92,899.2 L1492.92,952.32 L1526.84,952.32 L1526.84,956 L1488.84,956 Z M1542.52,956 L1542.52,899.28 L1546.6,899.28 L1546.6,956 L1542.52,956 Z M1601.24,908.64 C1597.55998,904.533313 1592.36003,902.48 1585.64,902.48 C1580.09331,902.48 1576.05335,903.533323 1573.52,905.64 C1570.98665,907.746677 1569.72,910.586649 1569.72,914.16 C1569.72,915.973342 1570.04,917.493327 1570.68,918.72 C1571.32,919.946673 1572.31999,920.973329 1573.68,921.8 C1575.04001,922.626671 1576.77332,923.346664 1578.88,923.96 C1580.98668,924.573336 1583.47999,925.17333 1586.36,925.76 C1589.45335,926.400003 1592.22665,927.106663 1594.68,927.88 C1597.13335,928.653337 1599.22666,929.626661 1600.96,930.8 C1602.69334,931.973339 1604.02666,933.413325 1604.96,935.12 C1605.89334,936.826675 1606.36,938.933321 1606.36,941.44 C1606.36,943.946679 1605.86667,946.133324 1604.88,948 C1603.89333,949.866676 1602.50668,951.42666 1600.72,952.68 C1598.93332,953.93334 1596.80001,954.879997 1594.32,955.52 C1591.83999,956.160003 1589.08001,956.48 1586.04,956.48 C1577.18662,956.48 1569.69336,953.653362 1563.56,948 L1565.72,944.72 C1568.12001,947.226679 1571.05332,949.213326 1574.52,950.68 C1577.98668,952.146674 1581.87998,952.88 1586.2,952.88 C1591.16002,952.88 1595.03999,951.973342 1597.84,950.16 C1600.64001,948.346658 1602.04,945.600018 1602.04,941.92 C1602.04,940.053324 1601.68,938.466673 1600.96,937.16 C1600.24,935.853327 1599.13334,934.720005 1597.64,933.76 C1596.14666,932.799995 1594.29334,931.973337 1592.08,931.28 C1589.86666,930.586663 1587.26668,929.920003 1584.28,929.28 C1581.23998,928.639997 1578.56001,927.960004 1576.24,927.24 C1573.91999,926.519996 1571.96001,925.613339 1570.36,924.52 C1568.75999,923.426661 1567.56,922.106674 1566.76,920.56 C1565.96,919.013326 1565.56,917.066678 1565.56,914.72 C1565.56,912.159987 1566.05333,909.893343 1567.04,907.92 C1568.02667,905.946657 1569.39999,904.280007 1571.16,902.92 C1572.92001,901.559993 1575.02665,900.533337 1577.48,899.84 C1579.93335,899.146663 1582.65332,898.8 1585.64,898.8 C1589.32002,898.8 1592.59999,899.346661 1595.48,900.44 C1598.36001,901.533339 1600.97332,903.199989 1603.32,905.44 L1601.24,908.64 Z M1662.36,902.88 L1641.56,902.88 L1641.56,956 L1637.48,956 L1637.48,902.88 L1616.68,902.88 L1616.68,899.2 L1662.36,899.2 L1662.36,902.88 Z M1715.8,952.32 L1715.8,956 L1677.96,956 L1677.96,899.2 L1715.08,899.2 L1715.08,902.88 L1682.04,902.88 L1682.04,925.2 L1710.92,925.2 L1710.92,928.72 L1682.04,928.72 L1682.04,952.32 L1715.8,952.32 Z M1737.64,906.88 L1737.64,956 L1733.56,956 L1733.56,899.2 L1736.68,899.2 L1776.52,949.2 L1776.52,899.28 L1780.6,899.28 L1780.6,956 L1776.84,956 L1737.64,906.88 Z M1807.64,940.56 C1807.64,938.47999 1807.78667,936.693341 1808.08,935.2 C1808.37333,933.706659 1808.81333,932.413339 1809.4,931.32 C1809.98667,930.226661 1810.70666,929.293337 1811.56,928.52 C1812.41334,927.746663 1813.37333,927.040003 1814.44,926.4 C1815.56001,925.759997 1816.78666,925.10667 1818.12,924.44 C1819.45334,923.77333 1820.69333,922.973338 1821.84,922.04 C1822.98667,921.106662 1823.93333,919.946674 1824.68,918.56 C1825.42667,917.173326 1825.8,915.44001 1825.8,913.36 C1825.8,911.43999 1825.46667,909.760007 1824.8,908.32 C1824.13333,906.879993 1823.25334,905.680005 1822.16,904.72 C1821.06666,903.759995 1819.81334,903.053336 1818.4,902.6 C1816.98666,902.146664 1815.53334,901.92 1814.04,901.92 C1810.99998,901.92 1808.25335,902.719992 1805.8,904.32 C1803.34665,905.920008 1801.50667,907.999987 1800.28,910.56 L1797.4,908.8 C1798.09334,907.146658 1799.03999,905.680006 1800.24,904.4 C1801.44001,903.119994 1802.77333,902.040004 1804.24,901.16 C1805.70667,900.279996 1807.27999,899.613336 1808.96,899.16 C1810.64001,898.706664 1812.33332,898.48 1814.04,898.48 C1816.01334,898.48 1817.91999,898.799997 1819.76,899.44 C1821.60001,900.080003 1823.23999,901.02666 1824.68,902.28 C1826.12001,903.53334 1827.26666,905.106657 1828.12,907 C1828.97334,908.893343 1829.4,911.093321 1829.4,913.6 C1829.4,915.840011 1829.04,917.733326 1828.32,919.28 C1827.6,920.826674 1826.66667,922.159994 1825.52,923.28 C1824.37333,924.400006 1823.08001,925.346663 1821.64,926.12 C1820.19999,926.893337 1818.78667,927.626663 1817.4,928.32 C1816.49333,928.800002 1815.65334,929.306664 1814.88,929.84 C1814.10666,930.373336 1813.44,931.079996 1812.88,931.96 C1812.32,932.840004 1811.89333,933.973326 1811.6,935.36 C1811.30667,936.746674 1811.16,938.47999 1811.16,940.56 L1807.64,940.56 Z M1807.72,956 L1807.72,948.16 L1811.24,948.16 L1811.24,956 L1807.72,956 Z" id="IT’S-YOUR-MUSIC,----" fill="#CFD0D1"></path>
                    <path d="M16.5,233.5 L640.635376,233.5" id="Line" stroke="#CFD0D1" stroke-width="15" stroke-linecap="square"></path>
                    <path d="M1184.5,1139 L1779.58405,1139" id="Line" stroke="#DB195E" stroke-width="2" stroke-linecap="square"></path>
                    <path d="M1195.064,1126 L1182.632,1096.88 L1184.648,1096.88 L1196.016,1123.816 L1207.384,1096.88 L1209.344,1096.88 L1196.912,1126 L1195.064,1126 Z M1219.592,1126 L1219.592,1096.88 L1221.496,1096.88 L1221.496,1126 L1219.592,1126 Z M1219.592,1089.824 L1219.592,1085.12 L1221.496,1085.12 L1221.496,1089.824 L1219.592,1089.824 Z M1247.984,1098.672 C1245.29599,1098.784 1242.96268,1099.63333 1240.984,1101.22 C1239.00532,1102.80667 1237.624,1104.96265 1236.84,1107.688 L1236.84,1126 L1234.936,1126 L1234.936,1096.88 L1236.784,1096.88 L1236.784,1104.272 C1237.792,1102.21866 1239.13599,1100.53867 1240.816,1099.232 C1242.49601,1097.92533 1244.28799,1097.16 1246.192,1096.936 C1246.56533,1096.936 1246.90133,1096.92667 1247.2,1096.908 C1247.49867,1096.88933 1247.76,1096.88 1247.984,1096.88 L1247.984,1098.672 Z M1269.992,1126.504 C1267.97599,1126.504 1266.11867,1126.07467 1264.42,1125.216 C1262.72132,1124.35733 1261.25601,1123.22801 1260.024,1121.828 C1258.79199,1120.42799 1257.83067,1118.83201 1257.14,1117.04 C1256.44933,1115.24799 1256.104,1113.41868 1256.104,1111.552 C1256.104,1109.57332 1256.43066,1107.67868 1257.084,1105.868 C1257.73734,1104.05732 1258.66133,1102.45201 1259.856,1101.052 C1261.05067,1099.65199 1262.47866,1098.532 1264.14,1097.692 C1265.80134,1096.852 1267.62132,1096.432 1269.6,1096.432 C1270.90667,1096.432 1272.11999,1096.61866 1273.24,1096.992 C1274.36001,1097.36534 1275.40533,1097.86933 1276.376,1098.504 C1277.34667,1099.13867 1278.24266,1099.88533 1279.064,1100.744 C1279.88534,1101.60267 1280.632,1102.51733 1281.304,1103.488 L1281.304,1096.88 L1283.096,1096.88 L1283.096,1126.896 C1283.096,1128.87468 1282.732,1130.58266 1282.004,1132.02 C1281.276,1133.45734 1280.29601,1134.66133 1279.064,1135.632 C1277.83199,1136.60267 1276.41334,1137.32133 1274.808,1137.788 C1273.20266,1138.25467 1271.54134,1138.488 1269.824,1138.488 C1268.10666,1138.488 1266.58534,1138.32 1265.26,1137.984 C1263.93466,1137.648 1262.768,1137.18134 1261.76,1136.584 C1260.75199,1135.98666 1259.86534,1135.268 1259.1,1134.428 C1258.33466,1133.588 1257.672,1132.66401 1257.112,1131.656 L1258.512,1130.872 C1259.70667,1132.96268 1261.31199,1134.47466 1263.328,1135.408 C1265.34401,1136.34134 1267.50932,1136.808 1269.824,1136.808 C1271.35467,1136.808 1272.81066,1136.60267 1274.192,1136.192 C1275.57334,1135.78133 1276.77733,1135.156 1277.804,1134.316 C1278.83067,1133.476 1279.652,1132.44001 1280.268,1131.208 C1280.884,1129.97599 1281.192,1128.53867 1281.192,1126.896 L1281.192,1120.064 C1280.59466,1121.03467 1279.876,1121.912 1279.036,1122.696 C1278.196,1123.48 1277.29067,1124.152 1276.32,1124.712 C1275.34933,1125.272 1274.32267,1125.71067 1273.24,1126.028 C1272.15733,1126.34533 1271.07467,1126.504 1269.992,1126.504 L1269.992,1126.504 Z M1270.328,1124.768 C1271.63467,1124.768 1272.91333,1124.516 1274.164,1124.012 C1275.41467,1123.508 1276.54399,1122.85467 1277.552,1122.052 C1278.56,1121.24933 1279.39066,1120.35334 1280.044,1119.364 C1280.69734,1118.37466 1281.08,1117.37601 1281.192,1116.368 L1281.192,1106.344 C1280.744,1105.18666 1280.11867,1104.10401 1279.316,1103.096 C1278.51333,1102.08799 1277.608,1101.22934 1276.6,1100.52 C1275.59199,1099.81066 1274.50934,1099.25067 1273.352,1098.84 C1272.19466,1098.42933 1271.01867,1098.224 1269.824,1098.224 C1267.95732,1098.224 1266.29601,1098.616 1264.84,1099.4 C1263.38399,1100.184 1262.152,1101.21066 1261.144,1102.48 C1260.13599,1103.74934 1259.36134,1105.17733 1258.82,1106.764 C1258.27866,1108.35067 1258.008,1109.94666 1258.008,1111.552 C1258.008,1113.30668 1258.32533,1114.97733 1258.96,1116.564 C1259.59467,1118.15067 1260.47199,1119.55066 1261.592,1120.764 C1262.71201,1121.97734 1264.01866,1122.948 1265.512,1123.676 C1267.00534,1124.404 1268.61066,1124.768 1270.328,1124.768 L1270.328,1124.768 Z M1296.536,1126 L1296.536,1096.88 L1298.44,1096.88 L1298.44,1126 L1296.536,1126 Z M1296.536,1089.824 L1296.536,1085.12 L1298.44,1085.12 L1298.44,1089.824 L1296.536,1089.824 Z M1335.008,1126 L1333.104,1126 L1333.104,1109.76 C1333.104,1105.76531 1332.54401,1102.84401 1331.424,1100.996 C1330.30399,1099.14799 1328.51201,1098.224 1326.048,1098.224 C1324.70399,1098.224 1323.38801,1098.46666 1322.1,1098.952 C1320.81199,1099.43734 1319.61734,1100.10933 1318.516,1100.968 C1317.41466,1101.82667 1316.444,1102.83466 1315.604,1103.992 C1314.764,1105.14934 1314.15733,1106.41866 1313.784,1107.8 L1313.784,1126 L1311.88,1126 L1311.88,1096.88 L1313.672,1096.88 L1313.672,1104.16 C1314.26934,1103.00266 1315.02533,1101.948 1315.94,1100.996 C1316.85467,1100.044 1317.87199,1099.232 1318.992,1098.56 C1320.11201,1097.888 1321.29733,1097.36534 1322.548,1096.992 C1323.79867,1096.61866 1325.07733,1096.432 1326.384,1096.432 C1329.44535,1096.432 1331.64799,1097.52399 1332.992,1099.708 C1334.33601,1101.89201 1335.008,1105.16798 1335.008,1109.536 L1335.008,1126 Z M1390.448,1126 L1388.544,1126 L1388.544,1109.76 C1388.544,1105.80265 1387.93734,1102.89068 1386.724,1101.024 C1385.51066,1099.15732 1383.65335,1098.224 1381.152,1098.224 C1379.84533,1098.224 1378.61334,1098.46666 1377.456,1098.952 C1376.29866,1099.43734 1375.244,1100.1 1374.292,1100.94 C1373.33999,1101.78 1372.51867,1102.79733 1371.828,1103.992 C1371.13733,1105.18667 1370.60533,1106.47466 1370.232,1107.856 L1370.232,1126 L1368.328,1126 L1368.328,1109.76 C1368.328,1105.76531 1367.74001,1102.84401 1366.564,1100.996 C1365.38799,1099.14799 1363.53068,1098.224 1360.992,1098.224 C1358.41599,1098.224 1356.15734,1099.10132 1354.216,1100.856 C1352.27466,1102.61068 1350.89334,1104.92532 1350.072,1107.8 L1350.072,1126 L1348.168,1126 L1348.168,1096.88 L1349.96,1096.88 L1349.96,1104.16 C1351.22934,1101.69599 1352.83466,1099.79201 1354.776,1098.448 C1356.71734,1097.10399 1358.86399,1096.432 1361.216,1096.432 C1363.68001,1096.432 1365.68666,1097.17866 1367.236,1098.672 C1368.78534,1100.16534 1369.70933,1102.14399 1370.008,1104.608 C1372.80801,1099.15731 1376.65331,1096.432 1381.544,1096.432 C1384.64268,1096.432 1386.90133,1097.54266 1388.32,1099.764 C1389.73867,1101.98534 1390.448,1105.24265 1390.448,1109.536 L1390.448,1126 Z M1415.592,1126.56 C1413.61332,1126.56 1411.77467,1126.15867 1410.076,1125.356 C1408.37732,1124.55333 1406.89334,1123.47067 1405.624,1122.108 C1404.35466,1120.74533 1403.36534,1119.14934 1402.656,1117.32 C1401.94666,1115.49066 1401.592,1113.56801 1401.592,1111.552 C1401.592,1109.49866 1401.956,1107.55734 1402.684,1105.728 C1403.412,1103.89866 1404.41066,1102.29334 1405.68,1100.912 C1406.94934,1099.53066 1408.43332,1098.43867 1410.132,1097.636 C1411.83067,1096.83333 1413.65066,1096.432 1415.592,1096.432 C1417.53334,1096.432 1419.36266,1096.83333 1421.08,1097.636 C1422.79734,1098.43867 1424.29066,1099.53066 1425.56,1100.912 C1426.82934,1102.29334 1427.828,1103.89866 1428.556,1105.728 C1429.284,1107.55734 1429.648,1109.49866 1429.648,1111.552 C1429.648,1113.56801 1429.284,1115.49066 1428.556,1117.32 C1427.828,1119.14934 1426.82934,1120.74533 1425.56,1122.108 C1424.29066,1123.47067 1422.79734,1124.55333 1421.08,1125.356 C1419.36266,1126.15867 1417.53334,1126.56 1415.592,1126.56 L1415.592,1126.56 Z M1403.496,1111.608 C1403.496,1113.40001 1403.81333,1115.09866 1404.448,1116.704 C1405.08267,1118.30934 1405.94133,1119.70933 1407.024,1120.904 C1408.10667,1122.09867 1409.38533,1123.04133 1410.86,1123.732 C1412.33467,1124.42267 1413.89332,1124.768 1415.536,1124.768 C1417.17867,1124.768 1418.73733,1124.41334 1420.212,1123.704 C1421.68667,1122.99466 1422.97466,1122.04267 1424.076,1120.848 C1425.17734,1119.65333 1426.05466,1118.24401 1426.708,1116.62 C1427.36134,1114.99599 1427.688,1113.28801 1427.688,1111.496 C1427.688,1109.70399 1427.36134,1107.99601 1426.708,1106.372 C1426.05466,1104.74799 1425.17734,1103.33867 1424.076,1102.144 C1422.97466,1100.94933 1421.69601,1099.99734 1420.24,1099.288 C1418.78399,1098.57866 1417.23467,1098.224 1415.592,1098.224 C1413.94932,1098.224 1412.40001,1098.57866 1410.944,1099.288 C1409.48799,1099.99734 1408.20934,1100.95866 1407.108,1102.172 C1406.00666,1103.38534 1405.12934,1104.80399 1404.476,1106.428 C1403.82266,1108.05201 1403.496,1109.77866 1403.496,1111.608 L1403.496,1111.608 Z M1454.064,1126.56 C1452.94399,1126.56 1451.83334,1126.392 1450.732,1126.056 C1449.63066,1125.72 1448.58534,1125.26267 1447.596,1124.684 C1446.60666,1124.10533 1445.71067,1123.424 1444.908,1122.64 C1444.10533,1121.856 1443.424,1120.99734 1442.864,1120.064 L1442.864,1126 L1441.072,1126 L1441.072,1085.12 L1442.976,1085.12 L1442.976,1103.488 C1444.39467,1101.39732 1446.05599,1099.69867 1447.96,1098.392 C1449.86401,1097.08533 1452.08532,1096.432 1454.624,1096.432 C1456.71468,1096.432 1458.59066,1096.88 1460.252,1097.776 C1461.91334,1098.672 1463.32266,1099.82933 1464.48,1101.248 C1465.63734,1102.66667 1466.524,1104.28132 1467.14,1106.092 C1467.756,1107.90268 1468.064,1109.72266 1468.064,1111.552 C1468.064,1113.53068 1467.70934,1115.42532 1467,1117.236 C1466.29066,1119.04668 1465.30134,1120.64266 1464.032,1122.024 C1462.76266,1123.40534 1461.27867,1124.50666 1459.58,1125.328 C1457.88132,1126.14934 1456.04268,1126.56 1454.064,1126.56 L1454.064,1126.56 Z M1453.84,1124.768 C1455.63201,1124.768 1457.27466,1124.38534 1458.768,1123.62 C1460.26134,1122.85466 1461.55866,1121.85601 1462.66,1120.624 C1463.76134,1119.39199 1464.61066,1117.98267 1465.208,1116.396 C1465.80534,1114.80933 1466.104,1113.19467 1466.104,1111.552 C1466.104,1109.83466 1465.81467,1108.17334 1465.236,1106.568 C1464.65733,1104.96266 1463.85467,1103.54401 1462.828,1102.312 C1461.80133,1101.07999 1460.56001,1100.09067 1459.104,1099.344 C1457.64799,1098.59733 1456.06134,1098.224 1454.344,1098.224 C1453.03733,1098.224 1451.80534,1098.448 1450.648,1098.896 C1449.49066,1099.344 1448.42667,1099.94133 1447.456,1100.688 C1446.48533,1101.43467 1445.62667,1102.29333 1444.88,1103.264 C1444.13333,1104.23467 1443.49867,1105.26133 1442.976,1106.344 L1442.976,1116.48 C1443.088,1117.60001 1443.508,1118.66399 1444.236,1119.672 C1444.964,1120.68001 1445.85999,1121.56666 1446.924,1122.332 C1447.98801,1123.09734 1449.13599,1123.69466 1450.368,1124.124 C1451.60001,1124.55334 1452.75733,1124.768 1453.84,1124.768 L1453.84,1124.768 Z M1479.544,1126 L1479.544,1096.88 L1481.448,1096.88 L1481.448,1126 L1479.544,1126 Z M1479.544,1089.824 L1479.544,1085.12 L1481.448,1085.12 L1481.448,1089.824 L1479.544,1089.824 Z M1495.168,1085.12 L1497.016,1085.12 L1497.016,1121.016 C1497.016,1122.09867 1497.352,1122.95733 1498.024,1123.592 C1498.696,1124.22667 1499.57333,1124.544 1500.656,1124.544 C1501.06667,1124.544 1501.56133,1124.49733 1502.14,1124.404 C1502.71867,1124.31067 1503.25066,1124.17067 1503.736,1123.984 L1504.184,1125.552 C1503.624,1125.73867 1502.924,1125.90667 1502.084,1126.056 C1501.244,1126.20533 1500.52534,1126.28 1499.928,1126.28 C1498.50933,1126.28 1497.36134,1125.84134 1496.484,1124.964 C1495.60666,1124.08666 1495.168,1122.90134 1495.168,1121.408 L1495.168,1085.12 Z M1524.792,1126.56 C1522.81332,1126.56 1520.96534,1126.15867 1519.248,1125.356 C1517.53066,1124.55333 1516.02801,1123.45201 1514.74,1122.052 C1513.45199,1120.65199 1512.444,1119.02801 1511.716,1117.18 C1510.988,1115.33199 1510.624,1113.36268 1510.624,1111.272 C1510.624,1109.21866 1510.97866,1107.29601 1511.688,1105.504 C1512.39734,1103.71199 1513.38666,1102.14401 1514.656,1100.8 C1515.92534,1099.45599 1517.39999,1098.392 1519.08,1097.608 C1520.76001,1096.824 1522.58932,1096.432 1524.568,1096.432 C1526.54668,1096.432 1528.39466,1096.824 1530.112,1097.608 C1531.82934,1098.392 1533.32266,1099.46533 1534.592,1100.828 C1535.86134,1102.19067 1536.86933,1103.78666 1537.616,1105.616 C1538.36267,1107.44534 1538.736,1109.38666 1538.736,1111.44 C1538.736,1111.51467 1538.72667,1111.664 1538.708,1111.888 C1538.68933,1112.112 1538.68,1112.24267 1538.68,1112.28 L1512.584,1112.28 C1512.696,1114.07201 1513.10666,1115.74266 1513.816,1117.292 C1514.52534,1118.84134 1515.43066,1120.17599 1516.532,1121.296 C1517.63334,1122.41601 1518.89333,1123.30266 1520.312,1123.956 C1521.73067,1124.60934 1523.24266,1124.936 1524.848,1124.936 C1525.93067,1124.936 1526.98533,1124.796 1528.012,1124.516 C1529.03867,1124.236 1530,1123.83467 1530.896,1123.312 C1531.792,1122.78933 1532.576,1122.164 1533.248,1121.436 C1533.92,1120.708 1534.46133,1119.91467 1534.872,1119.056 L1536.608,1119.504 C1536.19733,1120.51201 1535.59067,1121.45466 1534.788,1122.332 C1533.98533,1123.20934 1533.06134,1123.956 1532.016,1124.572 C1530.97066,1125.188 1529.83201,1125.67333 1528.6,1126.028 C1527.36799,1126.38267 1526.09867,1126.56 1524.792,1126.56 L1524.792,1126.56 Z M1536.832,1110.656 C1536.72,1108.82666 1536.328,1107.14667 1535.656,1105.616 C1534.984,1104.08533 1534.09734,1102.76001 1532.996,1101.64 C1531.89466,1100.51999 1530.63467,1099.652 1529.216,1099.036 C1527.79733,1098.42 1526.26667,1098.112 1524.624,1098.112 C1522.98132,1098.112 1521.45067,1098.42933 1520.032,1099.064 C1518.61333,1099.69867 1517.36267,1100.57599 1516.28,1101.696 C1515.19733,1102.81601 1514.32934,1104.14133 1513.676,1105.672 C1513.02266,1107.20267 1512.64,1108.86399 1512.528,1110.656 L1536.832,1110.656 Z M1558.616,1126.56 C1555.51732,1126.56 1553.18401,1125.45868 1551.616,1123.256 C1550.04799,1121.05332 1549.264,1117.78669 1549.264,1113.456 L1549.264,1096.88 L1551.168,1096.88 L1551.168,1113.232 C1551.168,1120.92271 1553.78131,1124.768 1559.008,1124.768 C1560.31467,1124.768 1561.60266,1124.53467 1562.872,1124.068 C1564.14134,1123.60133 1565.30799,1122.95734 1566.372,1122.136 C1567.43601,1121.31466 1568.36933,1120.32534 1569.172,1119.168 C1569.97467,1118.01066 1570.6,1116.74134 1571.048,1115.36 L1571.048,1096.88 L1572.952,1096.88 L1572.952,1122.976 C1572.952,1123.79734 1573.288,1124.208 1573.96,1124.208 L1573.96,1126 C1573.848,1126.03733 1573.74533,1126.056 1573.652,1126.056 L1573.4,1126.056 C1572.76533,1126.056 1572.23334,1125.79467 1571.804,1125.272 C1571.37466,1124.74933 1571.16,1124.208 1571.16,1123.648 L1571.16,1118.832 C1569.89066,1121.22135 1568.13601,1123.10666 1565.896,1124.488 C1563.65599,1125.86934 1561.22935,1126.56 1558.616,1126.56 L1558.616,1126.56 Z M1595.464,1126.56 C1593.22399,1126.56 1591.13334,1126.18667 1589.192,1125.44 C1587.25066,1124.69333 1585.53334,1123.53601 1584.04,1121.968 L1585.104,1120.68 C1586.67201,1122.09867 1588.27733,1123.16266 1589.92,1123.872 C1591.56267,1124.58134 1593.39199,1124.936 1595.408,1124.936 C1598.13335,1124.936 1600.33599,1124.35734 1602.016,1123.2 C1603.69601,1122.04266 1604.536,1120.41868 1604.536,1118.328 C1604.536,1117.35733 1604.32134,1116.54534 1603.892,1115.892 C1603.46266,1115.23866 1602.83734,1114.67867 1602.016,1114.212 C1601.19466,1113.74533 1600.17734,1113.33467 1598.964,1112.98 C1597.75066,1112.62533 1596.36001,1112.26134 1594.792,1111.888 C1593.18666,1111.51466 1591.79601,1111.15067 1590.62,1110.796 C1589.44399,1110.44133 1588.464,1110.02134 1587.68,1109.536 C1586.896,1109.05066 1586.31734,1108.43467 1585.944,1107.688 C1585.57066,1106.94133 1585.384,1105.98934 1585.384,1104.832 C1585.384,1103.37599 1585.664,1102.12534 1586.224,1101.08 C1586.784,1100.03466 1587.54,1099.16667 1588.492,1098.476 C1589.444,1097.78533 1590.54533,1097.272 1591.796,1096.936 C1593.04667,1096.6 1594.38133,1096.432 1595.8,1096.432 C1598.15201,1096.432 1600.17732,1096.824 1601.876,1097.608 C1603.57468,1098.392 1604.816,1099.38133 1605.6,1100.576 L1604.312,1101.528 C1603.49066,1100.40799 1602.28667,1099.54934 1600.7,1098.952 C1599.11333,1098.35466 1597.42401,1098.056 1595.632,1098.056 C1594.47466,1098.056 1593.392,1098.17733 1592.384,1098.42 C1591.37599,1098.66267 1590.48934,1099.05466 1589.724,1099.596 C1588.95866,1100.13734 1588.352,1100.81866 1587.904,1101.64 C1587.456,1102.46134 1587.232,1103.43199 1587.232,1104.552 C1587.232,1105.448 1587.38133,1106.19466 1587.68,1106.792 C1587.97867,1107.38934 1588.45466,1107.884 1589.108,1108.276 C1589.76134,1108.668 1590.58266,1109.004 1591.572,1109.284 C1592.56134,1109.564 1593.76533,1109.872 1595.184,1110.208 C1596.97601,1110.61867 1598.56266,1111.02933 1599.944,1111.44 C1601.32534,1111.85067 1602.50133,1112.336 1603.472,1112.896 C1604.44267,1113.456 1605.18,1114.14666 1605.684,1114.968 C1606.188,1115.78934 1606.44,1116.83466 1606.44,1118.104 C1606.44,1119.41067 1606.17867,1120.57733 1605.656,1121.604 C1605.13333,1122.63067 1604.396,1123.51733 1603.444,1124.264 C1602.492,1125.01067 1601.33467,1125.58 1599.972,1125.972 C1598.60933,1126.364 1597.10667,1126.56 1595.464,1126.56 L1595.464,1126.56 Z M1624.752,1126.56 C1623.40799,1126.56 1622.15734,1126.32667 1621,1125.86 C1619.84266,1125.39333 1618.83467,1124.75867 1617.976,1123.956 C1617.11733,1123.15333 1616.44534,1122.21067 1615.96,1121.128 C1615.47466,1120.04533 1615.232,1118.86934 1615.232,1117.6 C1615.232,1116.36799 1615.53066,1115.23867 1616.128,1114.212 C1616.72534,1113.18533 1617.55599,1112.29867 1618.62,1111.552 C1619.68401,1110.80533 1620.95333,1110.22667 1622.428,1109.816 C1623.90267,1109.40533 1625.53599,1109.2 1627.328,1109.2 C1628.93334,1109.2 1630.57599,1109.33067 1632.256,1109.592 C1633.93601,1109.85333 1635.42933,1110.24533 1636.736,1110.768 L1636.736,1107.632 C1636.736,1104.71999 1635.90534,1102.39601 1634.244,1100.66 C1632.58266,1098.92399 1630.35201,1098.056 1627.552,1098.056 C1626.13333,1098.056 1624.63067,1098.364 1623.044,1098.98 C1621.45733,1099.596 1619.84267,1100.48266 1618.2,1101.64 L1617.304,1100.24 C1621.07469,1097.70132 1624.52798,1096.432 1627.664,1096.432 C1631.06135,1096.432 1633.73999,1097.43999 1635.7,1099.456 C1637.66001,1101.47201 1638.64,1104.23465 1638.64,1107.744 L1638.64,1122.976 C1638.64,1123.79734 1638.976,1124.208 1639.648,1124.208 L1639.648,1126 C1639.536,1126.03733 1639.38667,1126.056 1639.2,1126.056 C1638.56533,1126.056 1638.01467,1125.82267 1637.548,1125.356 C1637.08133,1124.88933 1636.848,1124.32 1636.848,1123.648 L1636.848,1121.072 C1635.54133,1122.82668 1633.81468,1124.18 1631.668,1125.132 C1629.52132,1126.084 1627.21601,1126.56 1624.752,1126.56 L1624.752,1126.56 Z M1625.032,1124.936 C1627.38401,1124.936 1629.53066,1124.49734 1631.472,1123.62 C1633.41334,1122.74266 1634.86933,1121.55734 1635.84,1120.064 C1636.43734,1119.28 1636.736,1118.53334 1636.736,1117.824 L1636.736,1112.336 C1633.86132,1111.21599 1630.76268,1110.656 1627.44,1110.656 C1624.34132,1110.656 1621.84934,1111.28133 1619.964,1112.532 C1618.07866,1113.78267 1617.136,1115.45332 1617.136,1117.544 C1617.136,1118.58934 1617.34133,1119.56 1617.752,1120.456 C1618.16267,1121.352 1618.71333,1122.136 1619.404,1122.808 C1620.09467,1123.48 1620.92533,1124.00266 1621.896,1124.376 C1622.86667,1124.74934 1623.91199,1124.936 1625.032,1124.936 L1625.032,1124.936 Z M1651.408,1126 L1651.408,1121.856 L1653.144,1121.856 L1653.144,1126 L1651.408,1126 Z M1664.064,1111.328 C1664.064,1109.23732 1664.41866,1107.28668 1665.128,1105.476 C1665.83734,1103.66532 1666.82666,1102.08801 1668.096,1100.744 C1669.36534,1099.39999 1670.86799,1098.34534 1672.604,1097.58 C1674.34001,1096.81466 1676.21599,1096.432 1678.232,1096.432 C1680.77068,1096.432 1683.01999,1097.01999 1684.98,1098.196 C1686.94001,1099.37201 1688.42399,1100.98666 1689.432,1103.04 L1687.528,1103.712 C1686.632,1101.99466 1685.33468,1100.65067 1683.636,1099.68 C1681.93732,1098.70933 1680.08001,1098.224 1678.064,1098.224 C1676.38399,1098.224 1674.80667,1098.56 1673.332,1099.232 C1671.85733,1099.904 1670.56934,1100.82799 1669.468,1102.004 C1668.36666,1103.18001 1667.508,1104.57066 1666.892,1106.176 C1666.276,1107.78134 1665.968,1109.49866 1665.968,1111.328 C1665.968,1113.15734 1666.29466,1114.88399 1666.948,1116.508 C1667.60134,1118.13201 1668.47866,1119.55999 1669.58,1120.792 C1670.68134,1122.02401 1671.96933,1122.99466 1673.444,1123.704 C1674.91867,1124.41334 1676.47733,1124.768 1678.12,1124.768 C1679.20267,1124.768 1680.27599,1124.60933 1681.34,1124.292 C1682.40401,1123.97467 1683.384,1123.55467 1684.28,1123.032 C1685.176,1122.50933 1685.95066,1121.90267 1686.604,1121.212 C1687.25734,1120.52133 1687.696,1119.784 1687.92,1119 L1689.768,1119.56 C1689.432,1120.56801 1688.89067,1121.50133 1688.144,1122.36 C1687.39733,1123.21867 1686.51067,1123.956 1685.484,1124.572 C1684.45733,1125.188 1683.32801,1125.67333 1682.096,1126.028 C1680.86399,1126.38267 1679.59467,1126.56 1678.288,1126.56 C1676.30932,1126.56 1674.46134,1126.15867 1672.744,1125.356 C1671.02666,1124.55333 1669.52401,1123.46134 1668.236,1122.08 C1666.94799,1120.69866 1665.93067,1119.08401 1665.184,1117.236 C1664.43733,1115.38799 1664.064,1113.41868 1664.064,1111.328 L1664.064,1111.328 Z M1712.616,1126.56 C1710.63732,1126.56 1708.79868,1126.15867 1707.1,1125.356 C1705.40132,1124.55333 1703.91734,1123.47067 1702.648,1122.108 C1701.37866,1120.74533 1700.38934,1119.14934 1699.68,1117.32 C1698.97066,1115.49066 1698.616,1113.56801 1698.616,1111.552 C1698.616,1109.49866 1698.98,1107.55734 1699.708,1105.728 C1700.436,1103.89866 1701.43466,1102.29334 1702.704,1100.912 C1703.97334,1099.53066 1705.45732,1098.43867 1707.156,1097.636 C1708.85468,1096.83333 1710.67466,1096.432 1712.616,1096.432 C1714.55734,1096.432 1716.38666,1096.83333 1718.104,1097.636 C1719.82134,1098.43867 1721.31466,1099.53066 1722.584,1100.912 C1723.85334,1102.29334 1724.852,1103.89866 1725.58,1105.728 C1726.308,1107.55734 1726.672,1109.49866 1726.672,1111.552 C1726.672,1113.56801 1726.308,1115.49066 1725.58,1117.32 C1724.852,1119.14934 1723.85334,1120.74533 1722.584,1122.108 C1721.31466,1123.47067 1719.82134,1124.55333 1718.104,1125.356 C1716.38666,1126.15867 1714.55734,1126.56 1712.616,1126.56 L1712.616,1126.56 Z M1700.52,1111.608 C1700.52,1113.40001 1700.83733,1115.09866 1701.472,1116.704 C1702.10667,1118.30934 1702.96533,1119.70933 1704.048,1120.904 C1705.13067,1122.09867 1706.40933,1123.04133 1707.884,1123.732 C1709.35867,1124.42267 1710.91733,1124.768 1712.56,1124.768 C1714.20267,1124.768 1715.76133,1124.41334 1717.236,1123.704 C1718.71067,1122.99466 1719.99866,1122.04267 1721.1,1120.848 C1722.20134,1119.65333 1723.07866,1118.24401 1723.732,1116.62 C1724.38534,1114.99599 1724.712,1113.28801 1724.712,1111.496 C1724.712,1109.70399 1724.38534,1107.99601 1723.732,1106.372 C1723.07866,1104.74799 1722.20134,1103.33867 1721.1,1102.144 C1719.99866,1100.94933 1718.72001,1099.99734 1717.264,1099.288 C1715.80799,1098.57866 1714.25867,1098.224 1712.616,1098.224 C1710.97333,1098.224 1709.42401,1098.57866 1707.968,1099.288 C1706.51199,1099.99734 1705.23334,1100.95866 1704.132,1102.172 C1703.03066,1103.38534 1702.15334,1104.80399 1701.5,1106.428 C1700.84666,1108.05201 1700.52,1109.77866 1700.52,1111.608 L1700.52,1111.608 Z M1780.376,1126 L1778.472,1126 L1778.472,1109.76 C1778.472,1105.80265 1777.86534,1102.89068 1776.652,1101.024 C1775.43866,1099.15732 1773.58135,1098.224 1771.08,1098.224 C1769.77333,1098.224 1768.54134,1098.46666 1767.384,1098.952 C1766.22666,1099.43734 1765.172,1100.1 1764.22,1100.94 C1763.268,1101.78 1762.44667,1102.79733 1761.756,1103.992 C1761.06533,1105.18667 1760.53334,1106.47466 1760.16,1107.856 L1760.16,1126 L1758.256,1126 L1758.256,1109.76 C1758.256,1105.76531 1757.66801,1102.84401 1756.492,1100.996 C1755.31599,1099.14799 1753.45868,1098.224 1750.92,1098.224 C1748.34399,1098.224 1746.08534,1099.10132 1744.144,1100.856 C1742.20266,1102.61068 1740.82134,1104.92532 1740,1107.8 L1740,1126 L1738.096,1126 L1738.096,1096.88 L1739.888,1096.88 L1739.888,1104.16 C1741.15734,1101.69599 1742.76266,1099.79201 1744.704,1098.448 C1746.64534,1097.10399 1748.79199,1096.432 1751.144,1096.432 C1753.60801,1096.432 1755.61466,1097.17866 1757.164,1098.672 C1758.71334,1100.16534 1759.63733,1102.14399 1759.936,1104.608 C1762.73601,1099.15731 1766.58131,1096.432 1771.472,1096.432 C1774.57068,1096.432 1776.82933,1097.54266 1778.248,1099.764 C1779.66667,1101.98534 1780.376,1105.24265 1780.376,1109.536 L1780.376,1126 Z" id="virginmobileusa.com" fill="#DB195E"></path>
                </g>
            </g>
        </g>
    </g>
</svg>