<?xml version="1.0" encoding="UTF-8" standalone="no"?>
<svg width="591px" height="167px" viewBox="0 0 591 167" version="1.1" xmlns="http://www.w3.org/2000/svg" xmlns:xlink="http://www.w3.org/1999/xlink" xmlns:sketch="http://www.bohemiancoding.com/sketch/ns">
    <!-- Generator: Sketch 3.4.4 (17249) - http://www.bohemiancoding.com/sketch -->
    <title>24.7MIXX + VirginAmericaLOGO</title>
    <desc>Created with Sketch.</desc>
    <defs>
        <linearGradient x1="-2.90406579%" y1="-12.7249384%" x2="100%" y2="100%" id="linearGradient-1">
            <stop stop-color="#6058A6" offset="0%"></stop>
            <stop stop-color="#ED3895" offset="100%"></stop>
        </linearGradient>
        <linearGradient x1="100%" y1="100%" x2="0%" y2="0%" id="linearGradient-2">
            <stop stop-color="#6058A6" offset="0%"></stop>
            <stop stop-color="#ED3895" offset="100%"></stop>
        </linearGradient>
        <path id="path-3" d="M142.987678,6.64159 C136.880682,1.50514714 132.008002,0.104732857 123.886869,0.104732857 L0.000717625899,0.104732857 L81.168991,158.358704 C84.2930558,164.447047 88.3811313,166.999761 94.1675881,166.999761 L199.928901,166.999761 C204.842246,166.999761 207.77016,164.470904 209.760376,160.045404 L224.258811,127.812019 L241.489009,89.5046043 L142.987678,6.64159 Z"></path>
    </defs>
    <g id="Page-1" stroke="none" stroke-width="1" fill="none" fill-rule="evenodd" sketch:type="MSPage">
        <g id="SplashScreen" sketch:type="MSArtboardGroup" transform="translate(-204.000000, -307.000000)">
            <g id="24.7MIXX-+-VirginAmericaLOGO" sketch:type="MSLayerGroup" transform="translate(204.000000, 307.000000)">
                <path d="M562.04486,132.251356 L562.04486,131.974613 L542.838799,103.816027 L551.431173,103.816027 L566.678331,126.72127 L566.955813,126.72127 L582.399122,103.816027 L590.515471,103.816027 L570.795112,132.330084 L570.795112,132.56627 L590.080112,160.80597 L581.528403,160.80597 L566.360183,138.096356 L566.085094,138.096356 L550.680058,160.80597 L542.601982,160.80597 L562.04486,132.251356 Z M511.442878,132.251356 L511.442878,131.974613 L492.239209,103.816027 L500.831583,103.816027 L516.076349,126.72127 L516.353831,126.72127 L531.79714,103.816027 L539.915881,103.816027 L520.195522,132.330084 L520.195522,132.56627 L539.480522,160.80597 L530.926421,160.80597 L515.760594,138.096356 L515.483112,138.096356 L500.078076,160.80597 L492,160.80597 L511.442878,132.251356 Z M478,103.816027 L485.128417,103.816027 L485.128417,160.80597 L478,160.80597 L478,103.816027 Z M359.178403,100.304256 L399.322396,100.304256 L368.017162,160.80597 L365.017486,160.80597 L395.105147,102.649413 L359.178403,102.649413 L359.178403,100.304256 Z M330.218906,150.776427 L330.218906,108.63517 L306.781245,150.776427 L330.218906,150.776427 Z M330.218906,160.80597 L330.218906,153.446041 L302.805597,153.446041 L332.893259,99.33327 L332.893259,150.776427 L339.949914,150.776427 L339.949914,153.446041 L332.893259,153.446041 L332.893259,160.80597 L330.218906,160.80597 Z M294.859086,121.980856 C294.859086,116.53427 293.07459,111.789084 289.505597,107.745299 C285.936604,103.701513 281.20745,101.680813 275.313349,101.680813 C269.42164,101.680813 264.513079,103.796941 260.594842,108.029199 C256.674212,112.261456 254.715094,117.397899 254.715094,123.436141 L252.201011,123.436141 C252.201011,116.589141 254.418475,110.87297 258.851011,106.290013 C263.283547,101.707056 268.811658,99.4143843 275.435345,99.4143843 C282.059032,99.4143843 287.398169,101.652184 291.452755,106.127784 C295.507342,110.603384 297.535831,115.91637 297.535831,122.06197 C297.535831,130.958299 292.749266,138.401727 283.180921,144.385099 L261.121101,158.136356 L297.291838,158.136356 L297.291838,160.80597 L252.686604,160.80597 L280.98977,142.929813 C290.235183,137.106284 294.859086,130.123299 294.859086,121.980856 L294.859086,121.980856 Z M349.5,162 C351.432997,162 353,160.432997 353,158.5 C353,156.567003 351.432997,155 349.5,155 C347.567003,155 346,156.567003 346,158.5 C346,160.432997 347.567003,162 349.5,162 Z M469.276995,117.51289 C469.276995,108.008204 461.517067,100.304733 451.943937,100.304733 C446.324926,100.304733 441.346995,102.969576 438.179872,107.082547 C435.01275,102.969576 430.034818,100.304733 424.415808,100.304733 C414.842678,100.304733 407.08275,108.008204 407.08275,117.51289 L407.08275,161.092733 L414.211167,161.092733 L414.211167,117.51289 L414.22552,117.51289 C414.22552,111.91839 418.792013,107.383147 424.427768,107.383147 C429.996545,107.383147 434.515196,111.815804 434.620448,117.319647 C434.620448,117.384061 434.610879,117.448476 434.610879,117.51289 L434.610879,161.092733 L441.739297,161.092733 L441.739297,117.51289 L441.748865,117.51289 L441.751257,117.51289 C441.751257,111.91839 446.320142,107.383147 451.955897,107.383147 C457.589261,107.383147 462.158146,111.91839 462.158146,117.51289 L462.04811,117.51289 L462.04811,161.092733 L469.174135,161.092733 L469.174135,117.51289 L469.276995,117.51289 Z" id="24.7MIXX" opacity="0.7" fill="url(#linearGradient-1)" sketch:type="MSShapeGroup"></path>
                <g id="VirginAmericaLOGO">
                    <mask id="mask-4" sketch:name="Mask" fill="white">
                        <use xlink:href="#path-3"></use>
                    </mask>
                    <use id="Mask" fill="url(#linearGradient-2)" sketch:type="MSShapeGroup" xlink:href="#path-3"></use>
                    <path d="M204.016977,78.4754471 C202.151149,79.6802329 199.967174,80.38879 197.862138,81.0496329 C193.161689,82.5216186 188.906167,84.4325757 184.557354,86.73479 C180.194189,89.03939 175.718595,91.1364329 171.484603,93.6724471 C167.575933,96.0128329 163.681617,98.3365186 159.71793,100.588633 C158.017156,101.557233 156.596257,102.840747 154.876347,103.78549 C153.876455,104.33659 152.878955,104.995047 152.005844,105.748933 C151.283433,106.369219 150.183074,107.010976 149.573092,107.702833 C148.427282,109.003047 149.613757,110.844819 148.948757,112.207061 C148.738254,112.63649 148.924836,112.498119 149.082714,112.779633 C149.254944,113.08739 148.951149,113.533519 148.862642,113.807876 C148.618649,114.580847 148.807624,116.14349 148.833937,116.980876 C148.855466,117.722833 148.977462,118.436161 148.946365,119.18289 C148.915268,119.927233 148.513397,120.757461 148.879387,121.477947 C149.006167,122.453704 148.592336,123.412761 148.640178,124.388519 C148.690412,125.41199 148.769351,126.373433 148.754998,127.406447 C148.747822,127.902676 148.786095,128.408447 148.989423,128.871276 C148.821977,129.054976 148.530142,129.200504 148.429674,129.441461 C148.145016,130.119004 148.829153,130.133319 148.869818,130.550819 C148.776527,130.696347 148.628218,130.753604 148.432067,130.724976 C148.707156,131.20689 148.998991,131.798547 148.707156,132.290004 C148.494261,132.650247 148.25266,133.01049 148.580376,133.401747 C148.439243,133.776304 149.166437,134.074519 149.001383,134.422833 C148.876995,134.687647 148.63061,134.907133 148.525358,135.174333 C148.324423,135.675333 149.137732,135.797004 148.649746,136.240747 C148.319638,136.541347 148.625826,136.779919 148.845897,137.016104 C149.25016,137.455076 148.664099,137.500404 148.723901,138.013333 C148.841113,139.029647 149.498937,139.933833 149.484585,140.974004 C149.470232,141.997476 148.668883,142.81339 149.62811,143.471847 C150.130448,143.813004 150.68302,146.506476 149.558739,146.165319 C150.084998,146.325161 149.518074,147.019404 149.573092,147.35579 C149.666383,147.930747 150.766743,147.801919 150.805016,148.57489 C150.821761,148.949447 150.467732,149.17609 150.163937,149.29299 C150.285933,149.641304 150.395969,149.99439 150.565808,150.323619 C150.788272,150.764976 151.254728,151.36379 150.938973,151.94829 C150.833721,152.139147 150.608865,152.203561 150.671059,152.473147 C150.824153,153.13399 150.553847,152.835776 150.276365,153.50139 C149.9032,154.405576 148.972678,155.056876 148.082822,155.395647 C146.02802,156.180547 143.743577,155.216719 142.719764,153.324847 C141.669638,151.390033 141.997354,148.954219 142.073901,146.845247 C142.169585,144.094519 142.368128,141.346176 142.387264,138.593061 C142.423146,134.217661 142.688667,129.763533 142.492516,125.376204 C142.454243,122.835419 142.442282,120.297019 142.475772,117.756233 C142.492516,116.484647 142.518829,115.213061 142.559495,113.941476 C142.573847,113.514433 142.947013,112.414619 142.205466,112.688976 C140.153056,113.445247 138.270484,115.423004 136.61516,116.785247 C131.242534,121.198819 125.896221,125.636247 120.384854,129.88759 C118.633847,131.24029 117.095736,132.77669 115.548056,134.351261 C113.887948,136.035576 111.928829,137.440761 110.369189,139.208576 C108.90284,140.871419 107.391041,142.44599 105.869674,144.056347 C104.255016,145.762133 102.75757,147.82339 100.903703,149.273904 C100.176509,149.808304 99.4804119,150.407119 98.8728219,151.072733 C98.3130737,151.683476 96.9184874,151.807533 96.1003939,151.678704 C94.2632716,151.392419 92.5696745,149.684247 92.7419047,147.758976 C92.9069586,145.95299 94.4283255,144.504861 95.631545,143.290533 C97.4112572,141.491704 99.179009,139.695261 101.056797,138.001404 C108.302426,131.459776 115.837498,125.22829 123.461077,119.139947 C127.364962,116.024204 131.531977,113.27109 135.531545,110.284176 C137.56721,108.764476 139.557426,107.187519 141.650502,105.73939 C142.86329,104.902004 142.676707,103.103176 142.60016,101.779104 C142.537966,100.691219 140.576455,102.16559 140.145879,102.602176 C139.76793,102.988661 138.292013,103.391847 137.780106,103.50159 C136.61516,103.749704 135.211005,104.093247 134.024531,103.98589 C132.890682,103.88569 130.465106,103.007747 130.060844,101.745704 C129.709207,100.650661 129.1973,99.5699329 129.25471,98.3890043 C129.309728,97.2677186 129.434117,96.1488186 129.434117,95.0251471 C129.434117,94.0374614 129.111185,93.0784043 129.147067,92.0978757 C129.18534,90.9503471 129.448469,89.82429 129.496311,88.67199 C129.584818,86.4628186 129.902966,84.1343614 130.874153,82.1208186 C132.216113,78.4945329 134.691923,75.1187471 138.414009,73.6897043 C140.083685,73.0503329 141.949513,73.3342329 141.528505,75.4885329 C141.196005,77.1847757 140.021491,78.0197757 139.150772,79.3724757 C139.112498,79.7828186 138.653218,80.07149 138.447498,80.3911757 C138.170016,80.8206043 137.988218,81.3001329 137.820772,81.7796614 C137.524153,82.6361329 137.069656,83.3423043 136.899818,84.2369471 C136.763469,84.9717471 136.354423,85.6421329 136.277876,86.3817043 C136.182192,87.3503043 136.344854,88.2998186 136.241995,89.2970471 C136.038667,91.2509471 135.007678,95.0323043 136.823272,96.5114471 C137.952336,97.4323329 139.777498,96.7309329 140.696059,95.8577614 C141.899279,94.7126186 142.578631,92.9567329 142.65757,91.3177471 C142.803487,88.5503186 143.590484,85.8544614 143.614405,83.0798757 C143.638326,80.3100614 143.966041,77.5402471 144.114351,74.7752043 C144.236347,72.50639 144.930052,70.4308186 147.348451,69.7866757 C149.711833,69.1568471 151.132732,70.7385757 151.108811,72.9596757 C151.068146,76.8126043 150.462948,80.6130471 150.223739,84.4779043 C149.888847,89.8958614 149.350628,95.1659043 149.379333,100.614876 C149.843397,101.008519 154.041509,97.8450614 154.536671,97.5158329 C157.316275,95.6764471 160.136545,93.9038614 162.980736,92.1670614 C167.322372,90.15829 171.211905,87.3264471 175.486563,85.1888471 C177.632264,84.0938043 179.67989,82.8198329 181.775358,81.6317471 C182.370987,81.2953614 186.380124,79.5323186 185.136239,78.7951329 C183.490484,77.81699 183.717732,75.2809757 183.858865,73.69209 C184.050232,71.5807329 183.923451,69.4741471 183.959333,67.3675614 C183.995214,65.40889 185.951941,58.7169614 181.856689,59.8239329 C180.99793,60.0577329 180.4023,60.59929 179.763613,61.1885614 C179.179944,61.7325043 179.007714,62.6820186 178.048487,62.7941471 C177.773397,63.3834186 178.160915,63.3142329 177.51266,63.9106614 C177.694459,64.42359 177.101221,65.5854329 176.976833,66.1317614 C176.89311,66.5039329 177.12275,66.8188471 176.749585,67.0192471 C176.419477,67.1981757 176.421869,67.3270043 176.699351,67.6395329 C177.194513,68.19779 176.168308,68.06419 176.323793,68.58189 C176.589315,69.4598329 176.429045,69.5982043 176.091761,70.3759471 C175.783182,71.0845043 176.448182,71.55449 176.496023,72.2344186 C176.493631,72.2081757 175.917138,72.1342186 175.917138,72.1342186 C175.78079,73.0002329 175.5057,74.3648614 175.795142,75.21179 C175.886041,75.47899 176.158739,75.8416186 175.991293,76.1374471 C175.857336,76.3784043 175.639656,76.7100186 175.768829,77.0034614 C175.921923,77.3446186 176.259207,77.4448186 176.058272,77.8575471 C175.936275,78.1128186 175.587031,78.4611329 175.682714,78.7808186 C175.80471,79.1911614 175.709027,79.5657186 175.759261,79.9760614 C175.802318,80.3172186 175.314333,80.48899 175.24257,80.8015186 C175.075124,81.5291614 175.091869,81.7486471 174.434045,82.32599 C173.984333,82.7220186 173.572894,83.09419 173.032282,83.3685471 C171.953451,83.9148757 170.283775,84.3276043 169.267138,83.4258043 C167.934746,82.2401043 168.563865,79.28659 168.683469,77.7525757 C168.891581,75.09489 168.946599,72.43959 169.0973,69.7795186 C169.30302,66.09359 168.599746,60.2867614 172.680646,58.4211329 C174.202013,57.72689 176.003254,57.6314614 177.632264,57.9511471 C179.136887,58.5738186 180.706095,56.6127614 181.536149,55.6441614 C183.265628,53.6234614 188.401437,50.2500614 190.341419,53.9574614 C190.714585,54.6660186 190.783955,55.4843186 190.956185,56.2549043 C191.051869,56.6724043 191.176257,57.0851329 191.36284,57.4716186 C191.102103,57.6672471 190.815052,57.9034329 190.795915,58.2589043 C190.776779,58.6406186 191.597264,61.2410471 191.238451,61.4772329 C190.535178,61.9400614 190.901167,62.4243614 190.834189,63.2736757 C190.771995,64.0848186 190.30793,65.5735043 190.805484,66.3011471 C191.085358,66.7138757 190.8007,66.7878329 190.7098,67.2506614 C190.616509,67.7349614 191.015987,68.2717471 190.994459,68.7799043 C190.956185,69.6101329 191.228883,71.0725757 190.805484,71.8145329 C190.774387,72.3656329 191.52311,73.0336329 191.193002,73.39149 C190.838973,73.7684329 191.865178,74.6249043 192.118739,74.9756043 C193.039692,76.2567329 196.613469,73.8734043 197.484189,73.4010329 C199.294998,72.42289 201.423955,71.0487186 203.576833,71.20379 C205.751239,71.3588614 206.275106,71.9123471 207.155394,73.9044186 C207.05971,75.6507614 205.413955,77.5736471 204.016977,78.4754471 L204.016977,78.4754471 Z M105.470196,80.6297471 C105.075502,80.6870043 103.625897,80.82299 103.58284,80.1764614 C103.558919,79.7971329 103.070933,79.42019 103.037444,78.8762471 C103.001563,78.2869757 103.185754,77.6953186 103.401041,77.1513757 C103.991887,75.6746186 104.908056,75.2404186 106.032336,74.2789757 C106.714081,73.6968614 108.457912,72.5612614 109.39561,73.1982471 C109.907516,73.5465614 110.754315,75.0185471 110.388326,75.6507614 C110.359621,75.7008614 110.670592,75.1664614 110.388326,75.6507614 C110.091707,76.1565329 110.055826,76.8841757 109.773559,77.3446186 C109.295142,78.1223614 108.646887,78.5637186 107.953182,79.1076614 C107.218811,79.6826186 106.424638,80.4937614 105.470196,80.6297471 L105.470196,80.6297471 Z M107.257085,93.5913329 C107.625466,94.5742471 106.816941,96.1321186 106.836077,97.1484329 C106.857606,98.2649471 106.580124,99.5174471 106.462912,100.641119 C106.316995,102.036761 106.08257,103.375147 105.891203,104.780333 C105.711797,106.10679 105.640034,107.433247 105.482156,108.759704 C105.333847,109.995504 105.441491,111.360133 105.132912,112.557761 C104.929585,113.349819 104.630574,114.22299 104.652103,115.048447 C104.661671,115.45879 104.91284,115.029361 105.116167,115.136719 C105.384081,115.277476 104.800412,116.300947 104.613829,115.60909 C104.470304,115.735533 104.549243,116.067147 104.36266,116.145876 C103.958397,116.31049 103.865106,116.219833 103.487156,116.642104 C102.920232,117.27909 101.700268,117.96379 100.918056,118.302561 C98.2604478,119.454861 98.3178579,115.955019 98.2532716,114.47349 C98.1145306,111.140647 98.875214,107.605019 98.7771385,104.348519 C98.7508255,103.492047 98.9661133,102.597404 99.0809335,101.74809 C99.1885773,100.951261 99.0665809,100.299961 99.0665809,99.5532329 C99.068973,97.8713043 99.2459874,95.5166043 99.9157716,94.0088329 C100.824764,91.91179 102.130844,90.0795614 104.415286,89.3853186 C105.166401,89.1539043 106.221311,89.1276614 106.680592,89.8982471 C106.905448,90.2704186 106.9198,91.97859 107.484333,91.9690471 C107.489117,92.0215329 107.460412,92.04539 107.422138,92.0501614 C107.288182,92.1312757 106.948505,92.1336614 106.922192,92.4271043 C106.886311,92.8613043 107.113559,93.2048471 107.257085,93.5913329 L107.257085,93.5913329 Z M92.3783076,99.0904043 C92.2276061,99.5747043 91.9668687,100.02799 91.9094586,100.536147 C91.8448723,101.072933 92.0147104,101.466576 91.8185594,102.003361 C91.6367608,102.494819 91.5291169,102.871761 91.4860594,103.394233 C91.4047284,104.460647 91.0267788,105.47219 90.8880378,106.529061 C90.840196,106.894076 90.6751421,107.545376 90.8976061,107.888919 C91.0961493,108.19429 91.3592788,108.363676 91.282732,108.785947 C91.0674442,109.966876 90.4167968,110.954561 90.1871565,112.116404 C90.0603759,112.75339 89.6345845,114.404304 89.9599083,114.986419 C90.2780558,115.549447 89.6824263,116.859204 89.4503939,117.615476 C88.9193507,119.354661 88.6179478,121.482719 88.510304,123.288704 C88.373955,125.57899 87.8357356,127.752376 87.6730737,130.028347 C87.4601781,132.97709 87.2281457,136.23359 86.5511853,139.117919 C86.2737032,140.313161 85.8072464,141.718347 84.68775,142.383961 C83.5921745,143.035261 81.8770486,143.042419 81.0039371,142.049961 C79.7217788,140.589904 79.5973903,138.089676 79.2098723,136.288461 C78.7003579,133.921833 78.5951061,131.486019 78.0401421,129.126547 C77.8368147,128.265304 77.9994766,126.795704 77.4086313,126.103847 C77.2100881,125.872433 77.0139371,124.617547 76.9804478,124.285933 C76.9134694,123.656104 77.0904838,123.114547 76.9637032,122.448933 C76.8417068,121.823876 76.6670845,121.222676 76.513991,120.609547 C75.9925162,118.517276 75.6767608,116.141104 75.4495126,113.991576 C75.2246565,111.880219 74.7223183,109.835661 74.5357356,107.700447 C74.3228399,105.28849 73.7415629,102.948104 73.4784335,100.540919 C73.2559694,98.5106757 73.3133795,96.2824186 72.5335594,94.3619186 C72.3134874,93.8179757 72.05275,93.28119 72.0479658,92.67999 C72.0479658,92.4891329 72.3039191,91.8593043 72.2130198,91.6803757 C72.0168687,91.2986614 71.6508795,91.8378329 71.6078219,91.26049 C71.4762572,89.4616614 69.6487032,91.7471757 69.8137572,92.4915186 C69.2492248,92.0239186 69.3568687,93.0760186 69.364045,93.3527614 C69.3760054,93.8299043 68.7851601,94.4406471 68.5914011,94.8939329 C67.8450701,96.62119 67.5699802,98.5846329 66.8619227,100.371533 C66.2591169,101.893619 65.6276061,103.580319 64.295214,104.622876 C62.9436853,105.679747 60.9008435,105.35529 60.0683975,103.787876 C59.1881097,102.13219 60.4104658,100.154433 60.9271565,98.5846329 C61.551491,96.70469 61.9820665,94.6816043 62.8671385,92.9018614 C63.7522104,91.1221186 64.2306277,89.0298471 64.8645306,87.1499043 C65.9744586,83.8528471 67.120268,80.52239 68.0771025,77.1776186 C68.8760594,74.3791757 70.6151061,70.16839 74.2797824,72.2296471 C76.0283975,73.2101757 76.207804,75.1760043 76.5259514,76.98199 C76.8919406,79.0814186 77.2268327,81.1808471 77.5976061,83.27789 C78.0760234,85.9856757 78.5568327,88.4501186 78.8199622,91.2080043 C78.9395665,92.4485757 79.3581817,93.6271186 79.7456996,94.8032757 C80.0590629,95.75279 80.1188651,96.8860043 80.4944227,97.7925757 C80.7336313,98.3699186 80.6068507,99.0784757 80.7695126,99.7584043 C81.0135054,100.769947 81.0685234,101.776719 81.3986313,102.769176 C81.750268,103.837976 81.0709155,104.830433 81.4249442,105.80619 C81.723955,106.62449 82.2884874,107.814961 82.0923363,108.69529 C81.9081457,109.532676 82.2908795,110.253161 82.2549982,111.121561 C82.2262932,111.877833 82.7860414,112.31919 82.5851061,113.161347 C82.4080917,113.946247 83.3481817,114.087004 83.5610773,113.209061 C83.7165629,112.562533 83.7428759,111.88499 83.7691888,111.224147 C83.8433435,109.322733 84.1519227,107.407004 84.5179119,105.53899 C85.5130198,100.459804 86.1947644,95.3305186 87.2161853,90.2537186 C89.175304,80.5319329 92.0625522,71.1012043 94.5264011,61.5321043 C95.0670126,59.4279043 96.0334155,57.45969 96.6912392,55.3817329 C97.4686673,52.9268329 98.4159335,50.5244186 99.3105737,48.1124614 C101.178793,43.0690614 103.003955,38.0185043 104.943937,33.0061186 C106.269153,29.5802329 108.099099,24.9090043 112.440736,24.62749 C116.138901,24.3865329 119.009405,28.4613329 117.913829,31.8872186 C117.624387,32.79379 116.95221,33.4379329 116.471401,34.2252186 C116.337444,34.4399329 116.385286,34.7381471 116.3207,34.9791043 C116.184351,35.48249 115.928397,35.3226471 115.583937,35.6184757 C114.158254,36.8447329 112.687121,38.1950471 111.658523,39.79109 C109.462588,43.19789 108.209135,46.9911757 106.422246,50.6389329 C105.905556,51.6910329 105.857714,52.8767329 105.36016,53.9598471 C104.963074,54.8187043 104.355484,55.6179186 104.106707,56.5340329 C103.549351,58.61199 102.508793,60.5539614 101.910772,62.6152186 C101.547174,63.8701043 101.568703,65.1369186 100.930016,66.3226186 C100.707552,66.7019471 100.913272,67.1480757 100.76257,67.5441043 C100.499441,67.7874471 100.358308,68.2383471 100.25784,68.5675757 C99.6622104,70.53579 98.8991349,72.52309 98.7747464,74.5915043 C98.7005917,75.8082186 98.4996565,76.2949043 97.8585773,77.2635043 C97.3849442,77.9768329 97.351455,78.9573614 96.9974263,79.7327186 C96.0692968,81.7772757 95.4784514,84.0007614 94.8612932,86.1550614 C94.5479299,87.2477186 94.413973,88.42149 94.2106457,89.5380043 C94.0336313,90.4994471 93.6772104,91.3845471 93.6700342,92.3746186 C93.6604658,93.4100186 93.3710234,93.8943186 93.0146025,94.8128186 C92.6940629,95.6406614 92.9882896,96.53769 92.7634335,97.3750757 C92.8591169,97.2581757 92.8997824,97.2677186 92.6605737,97.7424757 C92.2156457,98.12419 92.5242248,98.6204186 92.3783076,99.0904043 L92.3783076,99.0904043 Z M121.633523,82.22579 C121.585682,81.9108757 123.898829,81.1641471 124.202624,81.0782614 C124.652336,80.9518186 125.247966,81.0353186 125.692894,81.1355186 C126.69757,81.3597757 126.554045,81.7653471 126.841095,82.54309 C127.156851,83.39479 127.231005,83.5522471 127.042031,84.49699 C126.881761,85.2914329 126.656905,86.0047614 125.901005,86.4246471 C125.015933,87.1332043 124.128469,87.8584614 123.248182,88.5574757 C122.372678,89.2541043 121.671797,90.09149 121.126401,91.0744043 C120.81543,91.6374329 120.865664,92.2601043 120.626455,92.7897329 C120.033218,94.09949 120.112156,95.4641186 119.942318,96.8287471 C119.566761,99.8085043 119.868164,102.840747 119.478254,105.796647 C119.172067,108.113176 116.626887,111.057147 114.012336,110.873447 C111.919261,110.727919 111.909692,108.203833 111.95275,106.638804 C111.976671,105.717919 112.160862,104.856676 112.256545,103.945333 C112.357013,103.00059 112.120196,102.339747 112.335484,101.38069 C112.469441,100.784261 112.17043,100.121033 112.294818,99.4363329 C112.359405,99.0665471 112.371365,98.79219 112.447912,98.4486471 C112.708649,97.28919 112.756491,96.0605471 112.84739,94.8772329 C113.05311,92.21239 112.770844,89.40679 113.502822,86.81829 C113.835322,85.6469043 114.761059,84.8357614 115.715502,84.1224329 C116.186743,83.8051329 117.543056,83.7574186 117.832498,83.32799 C119.018973,83.6381329 120.729315,82.5216186 121.829674,82.2639614 C121.800969,82.1399043 121.733991,82.1279757 121.633523,82.22579 L121.633523,82.22579 Z M155.751851,84.49699 C155.790124,82.8198329 156.213523,81.2214043 156.256581,79.5227757 C156.328344,76.69809 156.845034,74.17639 157.043577,71.4423614 C157.156005,69.8868757 157.321059,67.86379 158.167858,66.5468757 C158.89266,65.4160471 159.380646,64.3520186 160.703469,63.7866043 C161.244081,63.55519 161.997588,63.52179 162.578865,63.5790471 C163.753379,63.6983329 162.980736,64.5357186 163.475897,65.0772757 C163.530915,64.99139 163.602678,64.9723043 163.693577,65.0200186 C163.695969,65.1894043 163.698362,65.3564043 163.698362,65.52579 C164.279638,65.5782757 163.652912,66.3321614 163.679225,66.7520471 C163.782085,67.7015614 163.688793,68.5938186 163.239081,69.4932329 C163.351509,69.5218614 163.468721,69.5314043 163.585933,69.5194757 C163.588326,69.55049 163.499818,69.8057614 163.483074,69.8272329 C163.148182,70.0467186 163.205592,70.1326043 163.248649,70.78629 C163.274962,71.1513043 163.485466,71.9171186 163.207984,72.2081757 C163.160142,72.2582757 163.150574,73.27459 163.184063,73.4392043 C163.234297,73.6849329 163.148182,75.2690471 163.172103,75.3000614 C163.241473,75.2762043 163.296491,75.2356471 163.337156,75.1760043 C163.27257,75.1569186 163.43284,77.2420329 163.282138,77.4138043 C163.062067,77.6619186 162.789369,77.9315043 162.853955,78.3036757 C162.880268,78.4611329 163.413703,79.5657186 163.253433,79.6444471 C163.097948,79.7327186 162.978344,79.3128329 162.906581,79.3128329 C162.672156,79.3128329 163.313236,80.20509 163.258218,80.2814329 C163.133829,80.4508186 162.7798,79.68739 162.633883,80.3267614 C162.495142,80.9375043 162.593218,81.6198186 162.631491,82.2377186 C162.667372,82.7959757 162.60757,83.2826614 162.586041,83.8409186 C162.545376,84.7570329 162.894621,85.9069471 162.466437,86.76819 C161.485682,88.7483329 157.06989,91.8473757 155.610718,88.8652329 C155.775772,89.2183186 156.046077,89.80759 155.584405,88.8246757 C155.476761,88.5861043 155.505466,88.6457471 155.574836,88.7865043 C155.015088,87.50299 155.718362,85.8282186 155.751851,84.49699 L155.751851,84.49699 Z M163.456761,50.54589 C164.305951,50.4337614 165.004441,50.29539 165.860808,50.4146757 C166.997049,50.5721329 167.052067,52.2135043 166.741095,53.0485043 C166.238757,54.4012043 164.638451,56.2095757 163.408919,56.9682329 C162.853955,57.3117757 162.246365,57.0445757 161.624423,57.0779757 C160.665196,57.1304614 160.086311,56.1117614 159.777732,55.3578757 C160.16525,56.3050043 159.127085,53.8119329 159.777732,55.3578757 C159.060106,53.6616329 161.822966,50.7105043 163.456761,50.54589 L163.456761,50.54589 Z" id="Fill-5" fill-opacity="0.896484375" fill="#FFFFFF" sketch:type="MSShapeGroup" mask="url(#mask-4)"></path>
                </g>
            </g>
        </g>
    </g>
</svg>